<?xml version="1.0" encoding="UTF-8"?>
<svg id="Capa_2" data-name="Capa 2" xmlns="http://www.w3.org/2000/svg" viewBox="0 0 519.06 793.71">
  <defs>
    <style>
      .cls-1, .cls-2 {
        stroke-miterlimit: 10;
      }

      .cls-1, .cls-2, .cls-3 {
        stroke: #000;
      }

      .cls-1, .cls-2, .cls-3, .cls-4 {
        fill: none;
      }

      .cls-5 {
        fill: #cccdff;
      }

      .cls-2 {
        stroke-width: .75px;
      }

      .cls-3 {
        stroke-linejoin: bevel;
      }

      .cls-6 {
        fill: #1e1e1e;
      }
    </style>
  </defs>
  <g id="Capa_1-2" data-name="Capa 1">
    <g>
      <g>
        <g>
          <path class="cls-5" d="m332.36,503.77l.14.27c-.13-.27-.26-.53-.39-.8l.25.52Z"/>
          <path class="cls-5" d="m339.25,517.41l-.11-.22s-.03-.05-.04-.07l.15.3Z"/>
          <path class="cls-5" d="m330.16,499.19l.18.37c-.05-.1-.1-.21-.15-.31l-.03-.06Z"/>
          <path class="cls-5" d="m330.33,499.56l1.77,3.68c.13.27.26.53.39.8l6.6,13.07s.03.05.04.07l-8.95-17.94c.05.1.1.21.15.31Z"/>
        </g>
        <g>
          <path d="m338.45,481.56c-.11,1.95-.21,3.89-.32,5.84-.39-.02-.77-.05-1.16-.07.13-1.94.25-3.89.38-5.83.37.02.73.04,1.1.06Z"/>
          <g>
            <path d="m328.19,473.62v23.58l.84-.39v-23.17c-.28,0-.56,0-.84-.01Z"/>
            <path d="m338.19,491.44c-.34,0-.68,0-1.02,0v21.17l1.07,2.1c0-7.76-.02-15.51-.05-23.27Z"/>
          </g>
          <path d="m333.79,505.26c.02-4.99.04-9.98.06-14.98.02-4.64-.26-9.28-.37-13.92-.02-.76.1-1.53.71-2.28.15,10.96.28,21.92.37,32.88"/>
          <path d="m330.64,499.6c.05-7.91.19-15.83.25-23.74.01-1.39-.12-2.79-.19-4.18.22-.04.43-.07.65-.11.21,1.26.61,2.53.61,3.79-.03,8.64-.09,17.28-.15,25.92"/>
        </g>
        <path d="m309.07,539.62c.09-3.59.19-7.18.3-10.76.02-.56.4-1.43.84-1.61,2.4-.96,2.33-2.91,2.31-4.97-.04-3.42.24-6.86-.06-10.25-.13-1.47-1.37-2.82-2.05-4.26-.5-1.05-1.23-2.13-1.28-3.23-.16-3.99-.04-7.98-.07-11.98-.13-16.95-.36-33.9-.38-50.85-.06-38.32-.01-76.63-.01-114.95,0-8.26-.09-16.53,0-24.79.07-5.98.37-11.95.59-17.92.02-.46.01-1.18.28-1.34,4.22-2.56,2.65-6.82,2.71-10.33.05-3,1.13-3.55,3.6-3.43,1.79.09,3.58.02,5.79.02v-9.81h18.62c0,2.53-.02,4.83,0,7.13.03,2.45,1.49,3.36,3.73,3.2,2.34-.17,3.25.39,2.7,3.08-.42,2.05.28,4.3.27,6.46-.04,14.63-.21,29.27-.2,43.9.03,26.05.19,52.1.23,78.15.04,27,0,54.01,0,81.01,0,16.55,0,33.1,0,49.66l1.24,2.18c-.02-17.44,0-34.89,0-52.33,0-16.44.02-32.88,0-49.31-.04-37.63-.1-75.26-.14-112.89-.02-17.27,0-34.54,0-51.81-1.36-.75-2.78-1.55-4.33-2.41.51-1.61.29-3.7,1.12-5.32l-2.27-1.52c-1.47-.47-2.56-1.1-3.66-1.12-5.53-.1-11.06-.06-16.6.02-.59,0-1.22.58-1.74,1.01-1.68,1.42-3.32,2.89-5,4.37,1.16,1.51,1.28,3.78.03,4.57-.63-2.36-1.12-4.8-2-7.09-.22-.57-1.7-.82-2.62-.9-.87-.07-1.78.29-2.78.49v4.08c1.55,1.56,2.6,2.62,3.62,3.65-.55.79-1.18,1.29-1.25,1.86-.41,3-1.29,6.12-.83,9.01.5,3.14-1.86,2.37-2.97,3.66,0,0-1.46.75-2.86,1.48.29,6.86.66,13.72.83,20.59.2,7.88.1,15.77.09,23.65-.02,24.6-.03,49.2-.11,73.8-.04,11.48-.27,22.95-.32,34.43-.03,7.11.17,14.22.16,21.34-.02,10.24-.07,20.48-.23,30.72-.13,8.06-.4,16.11-.69,24.16-.14,3.98-.68,7.95-.65,11.92.02,2.22,1.24,4.43,1.21,6.64-.07,4.62-.23,9.24-.4,13.86,3.1-2.6,5.23-4.93,5.23-4.93Z"/>
        <g>
          <path d="m339.95,306.6c-4.91,0-9.45-.15-13.97.06-2.68.12-3.8-.7-3.56-3.44.17-1.97.15-3.97.04-5.95-.09-1.73.63-2.43,2.3-2.43,4.37.02,8.74.03,13.11-.01,1.4-.01,2.12.42,2.1,1.94-.06,3.22-.02,6.44-.02,9.83Zm-1.54-1.69v-3.12c-2.11-.11-4.05-.22-5.99-.32.43-3.84,3.62-2.39,5.64-3.23h-8.16c1.25.49,1.93.75,3.3,1.29-2.49.53-4.27.85-6.03,1.29-1.22.31-2.41.76-3.61,1.15,1.28.42,2.54,1.11,3.85,1.2,2.7.19,5.43.06,8.14.06,0,.35.01.69.02,1.04h-11.31c0,.22,0,.43.01.65h14.15Zm-14.32-5c1.85-.64,3.21-1.12,4.57-1.59-.25-.53-.41-1.43-.77-1.52-1.19-.3-2.46-.3-3.81-.43v3.54Z"/>
          <path d="m333.88,381.62v-72.94c.18,0,.36,0,.55,0v72.94c-.18,0-.36,0-.55,0Z"/>
          <path d="m329.47,308.84v73.17c-.21-.61-.71-1.44-.73-2.28-.29-8.34-.59-16.67-.71-25.01-.15-10.53-.15-21.07-.2-31.61-.02-4.77,0-9.54,0-14.3l1.64.02Z"/>
          <path d="m331.77,308.82v72.77c-.25,0-.5,0-.76,0v-72.79c.25,0,.5.01.76.02Z"/>
          <path d="m337.66,373.82v-64.73c.26,0,.52,0,.78,0v64.73c-.26,0-.52,0-.78,0Z"/>
          <path d="m324.18,272.16c.07,4.29,1.61,4.93,5.32,5.54,2.33.38,4.69.61,6.96,1.19,1.15.29,2.13,1.22,3.19,1.86l-.43.87c-.71-.22-1.55-.26-2.1-.68-2.16-1.62-4.37-1.22-6.74-.64-.91.22-2.26.05-2.96-.51-2.17-1.7-4.79-3.28-4.11-6.76.05-.27.19-.54.35-.75.09-.11.34-.09.51-.12Z"/>
          <path d="m337.99,285.37c-1.23.71-2.45,1.42-3.58,2.08-1.09-.83.21-3.71-2.61-2.08-.04-.88-.09-1.78-.15-2.95,2.47.61,6.23-2.27,6.26,3.04,0,0,.07-.08.07-.08Z"/>
          <path d="m333.62,277.27v-16.15c.23,0,.47,0,.7,0v16.17c-.23,0-.47-.01-.7-.02Z"/>
          <path d="m331.14,276.11v-14.71c.22,0,.45,0,.67,0v14.71c-.22,0-.45,0-.67,0Z"/>
          <path d="m319.52,276.16c-1.41.21-2.82.42-4.45.66-.12.76-.29,1.8-.51,3.11-1.84-2.79-1.3-4.2,1.39-4.44,1.15-.1,2.3-.15,3.45-.22.04.3.08.6.12.89Z"/>
          <path d="m313.87,270.52c2.45-.22,4.91-.45,7.33-.67-1.09,1.83-4.04,2.27-7.33.67Z"/>
          <path d="m331,282.82c-.3,1.23-.61,2.46-.91,3.69-.4-.15-1.15-.32-1.14-.44.09-1.21.3-2.41.48-3.61.52.12,1.04.24,1.57.36Z"/>
          <path d="m337.92,285.46c.5,2.05,1,4.1,1.5,6.15-.48.06-.96.12-1.44.18,0-2.13,0-4.27,0-6.41,0,0-.07.08-.07.08Z"/>
        </g>
        <path d="m316.92,225.95c0-4.91.15-9.45-.06-13.97-.13-2.76.75-3.86,3.68-3.53,1.77.2,3.56.25,5.33.05,2.28-.25,3.01.69,2.76,3.05-.39,3.69-.46,7.42-.03,11.11.25,2.18.07,3.35-1.86,3.31-3.22-.06-6.44-.02-9.83-.02Zm1.69-1.54h3.12c.11-2.11.22-4.05.32-5.99,3.09.35,2.76,2.48,2.94,4.34.02.18.29.16.29-.02v-5.22c0-.34-.47-.43-.59-.11-.1.26-.21.53-.32.82s-.52.25-.59-.05c-.41-1.98-.7-3.51-1.08-5.02v-.04c-.33-1.28-2.21-1.16-2.34.15,0,.04,0,.08-.01.12-.19,2.7-.06,5.43-.06,8.14l-1.04.02v-11.31c-.22,0-.43,0-.65.01v14.15Zm5.3-13.45c.37,1.06.68,1.97.99,2.84.16.47.69.72,1.16.55.33-.12.62-.26.67-.45.23-.94.29-1.92.36-2.95.03-.46-.33-.85-.79-.85h-1.76c-.45,0-.76.45-.61.87Z"/>
        <g>
          <path d="m323.92,140.26c-.47,0-.96-.05-1.46-.16-2.44-.59-4.26-2.57-4.66-5.04l-.9-5.68c-.13-.84.23-1.7.93-2.2l.14-.08c.62-.37,1.38-.42,2.05-.13.7.31,1.2.94,1.32,1.71l.89,5.62c.07.46.34.88.72,1.15.36.26.79.36,1.2.29.56-.09.9-.43,1.1-.7l.53-.73.34.83c.41,1.01,1.13,1.88,2.07,2.51l.51.34-.43.43c-.36.36-.73.65-1.18.94-.75.44-1.5.71-2.24.83-.3.05-.61.07-.92.07Zm-5.6-12.2c-.33.29-.5.73-.43,1.16l.9,5.68c.33,2.07,1.86,3.73,3.89,4.22.7.15,1.38.18,2.01.08.62-.1,1.25-.33,1.87-.7.2-.13.38-.26.56-.4-.66-.54-1.21-1.19-1.61-1.92-.35.28-.76.46-1.2.53-.67.12-1.37-.04-1.95-.46-.6-.43-1.02-1.09-1.13-1.81l-.89-5.62c-.07-.43-.33-.77-.73-.95-.39-.17-.84-.13-1.2.11l-.1.07Z"/>
          <path d="m331.5,138.71c-.44,0-.91-.05-1.38-.15-2.44-.59-4.27-2.57-4.66-5.04l-1.42-8.98c-.14-.89.25-1.75.98-2.2.61-.42,1.42-.5,2.13-.21.71.3,1.2.94,1.33,1.71l1.42,8.98c.07.44.31.83.68,1.09.37.26.81.36,1.26.29.87-.15,1.48-1.05,1.34-1.96l-1.41-8.87c-.12-.76.15-1.52.72-2.03.58-.51,1.37-.69,2.11-.48.83.23,1.46.94,1.6,1.81l1.42,8.94c.39,2.47-.73,4.92-2.86,6.22-.74.42-1.48.68-2.25.81-.26.04-.52.08-.79.07-.07,0-.14,0-.21,0Zm-5.23-15.76c-.25,0-.49.08-.7.22-.41.25-.62.72-.54,1.21l1.42,8.98c.33,2.07,1.86,3.73,3.89,4.22.44.09.9.13,1.36.12.23.02.43-.03.63-.06.67-.11,1.29-.33,1.92-.68,1.77-1.09,2.71-3.14,2.38-5.21l-1.42-8.94c-.08-.48-.42-.88-.88-1-.42-.12-.86-.02-1.18.27-.32.29-.47.7-.4,1.12l1.41,8.87c.23,1.46-.73,2.85-2.15,3.1-.71.12-1.43-.04-2.01-.46-.59-.42-.97-1.04-1.08-1.75l-1.42-8.98c-.07-.43-.33-.78-.73-.94-.16-.07-.32-.1-.49-.1Z"/>
          <path d="m341.31,137.53c-1.28,0-2.42-.93-2.62-2.22h0c-.11-.7.06-1.41.47-1.98s1.04-.95,1.74-1.06c1.45-.22,2.82.76,3.05,2.21.23,1.44-.77,2.79-2.22,3.02-.14.02-.28.03-.42.03Zm-1.63-2.38c.14.89.99,1.51,1.9,1.36.9-.14,1.53-.99,1.38-1.88-.14-.9-1-1.53-1.9-1.38-.9.14-1.52,1-1.38,1.9h0Z"/>
        </g>
        <path class="cls-4" d="m348.69,137.92c-.06-16.16-.01-32.33-.01-48.73-8.31-3.84-16.9-4.01-25.63-3.04-.05,0-.09.06-.13.12-3.7.54-7.42,1.01-11.1,1.67-1.96.35-2.62,1.71-2.59,3.75.11,6.46.02,12.93.04,19.39.04,14.06.13,28.12.16,42.17.01,6.68-.07,13.36-.09,20.04-.01,4.03,0,8.07,0,12.18,13.76-2.4,27.1-2.4,40.51.63-3.06-15.93-1.08-32.08-1.14-48.18Z"/>
        <g>
          <path d="m344.37,166.07c.23,0,.47,0,.7,0v16.17c-.23,0-.47-.01-.7-.02v-16.15Z"/>
          <path d="m341.89,166.35c.22,0,.45,0,.67,0v14.71c-.22,0-.45,0-.67,0v-14.71Z"/>
        </g>
        <path class="cls-4" d="m309.26,111.09c.04,14.06.13,28.12.16,42.17.01,6.68-.07,13.36-.09,20.04-.01,4.03,0,8.07,0,12.18,13.76-2.4,27.1-2.4,40.51.63-3.06-15.93-1.08-32.08-1.14-48.18-.06-16.16-.01-32.33-.01-48.73-8.31-3.84-16.9-4.01-25.63-3.04-.05,0-.09.06-.13.12-3.7.54-7.42,1.01-11.1,1.67-1.96.35-2.62,1.71-2.59,3.75.11,6.46.02,12.93.04,19.39Z"/>
        <path d="m308.59,271.5c.35-2.26.67-4.29.44-6.69-.55-5.92-.24-11.92-.17-17.88,0-.69.6-1.39.96-2.06.53-.98,1.57-1.93,1.57-2.9-.01-16.66-.14-33.32-.27-49.97v-4.97s.04,0,.05,0c3.69-.63,7.41-1.29,11.13-1.44,6.9-.28,13.79.05,20.63,1.16.16.03.29.22,1,.77v64.07l.09,1.74c-.38.17-.82.4-1.31.64,1.48.66,2.33,1.04,3.38,1.5-.87,1.05-1.57,1.9-1.83,2.21l2.27,1.52c.51-.99,1.43-1.8,3.16-2.2l-.27-5.65c.29-2.21.71-3.99.72-5.76.05-14.45-.03-28.89.07-43.34.02-2.32-.2-4.09-2.69-4.36v-9.86c1.34-.13,2.45-.23,4.18-.4-.56-3.7-1.39-7.02-1.49-10.36-.22-7.49-.09-14.98-.07-22.48.06-20.82.1-44.38.25-65.2,0-.23-1.54-.28-4.03.25-1.47.31-3.26,1.36-5.27,1.25-3.73-.2-8.44.13-12.88.04-5.15-.11-10.78-1.13-14.66-1-4.06.13-5.96-.67-5.96-.19-.16,30.02,0,64.12.03,94.15,0,.56.03,1.03.09,1.43v5.7c-.1.41-.14.89-.13,1.45.06,16.35.04,32.7.02,49.06,0,.84.17,2.05-.29,2.46-1.94,1.71-1.23,3.8-1.24,5.84-.03,5.4-.08,10.81-.23,16.21-.08,3.11-.6,6.22-.51,9.32.07,2.41.16,4.81.26,7.22l2.86-1.48c0-3.55-.35-6.73.12-9.79Zm40.08-180.08c0,16.4-.05,30.34.01,46.51.06,16.11-1.92,32.26,1.14,48.18-13.41-3.03-26.75-3.02-40.51-.63,0-4.11-.01-8.14,0-12.18.02-6.68.11-13.36.09-20.04-.03-14.06-.11-28.12-.16-42.17-.02-6.46-.02-13.93-.14-20.39,0-.21,1.66,1.14,4.27.71,1.71-.29,3.88.91,6.25.52,3.94-.64,8.84,1.31,13.29.86,4.38-.45,8.67-.22,11.84-1.15,1.65-.49,2.84-.7,3.91-.2Z"/>
        <path d="m306.42,283.47c-.36,0-.69-.23-.81-.59-.15-.45.09-.93.54-1.08l4.65-1.54,1.45-3.83.51-7.96c.02-.35.26-.65.6-.76l4.63-1.47,3.11-4.67v-2.64c0-.35.22-.67.55-.8l4.84-1.86c.11-.04.23-.06.35-.06l15.85.82c.11,0,.22.03.33.08l1.68.8,1.15-.03c.47-.04.87.36.88.83.01.47-.36.87-.83.88l-1.36.04c-.14.01-.27-.03-.39-.08l-1.71-.82-15.5-.8-4.12,1.58v2.31c0,.17-.05.33-.14.47l-3.42,5.14c-.11.16-.27.28-.45.34l-4.35,1.38-.48,7.5c0,.08-.02.17-.05.25l-1.64,4.33c-.09.24-.29.43-.53.51l-5.04,1.67c-.09.03-.18.04-.27.04Z"/>
        <g>
          <path d="m308.98,603.8c.33.78.97,1.57.94,2.33-.27,5.25-.66,10.5-1.08,15.74-.03.39-.64.72-.98,1.08-.28-.43-.79-.85-.8-1.28-.03-2.37-.03-4.74.13-7.1.24-3.46.62-6.92.94-10.37.28-.13.57-.26.85-.39Z"/>
          <path d="m306.88,669.43v-4.95c.39.02.77.04,1.16.06-.13,1.65-.26,3.3-.39,4.95-.26-.02-.51-.04-.77-.06Z"/>
          <path class="cls-4" d="m347.84,669.31c.02-.09,0-.19,0-.28.14-6.81.29-13.63.42-20.44.04-1.88,0-3.77,0-5.65-.32-.06-.63-.11-.95-.17-1.57,3.37-1.26,7.93-6.08,10.05,0-1.56-.17-2.69.04-3.74.29-1.47,1.11-2.85,1.24-4.32.27-3.1.83-5.81,3.84-7.59.86-.51,1.43-2.2,1.43-3.36.07-13.3.18-26.6-.13-39.9-.1-4.19-1.45-8.34-2.24-12.51-.12-.64-.62-1.49-.37-1.88,1.87-3.03-.41-3.93-2.67-5.13-.2.87-.46,1.66-.54,2.47-.97,10.01-1.92,20.01-2.85,30.02-1.36,14.63-2.69,29.26-4.03,43.89-.26,2.86-2.37,3.32-4.64,3.59-2.24.27-3.9-.18-4.18-2.87-.44-4.15-1.08-8.27-1.5-12.42-1.47-14.53-2.79-29.08-4.34-43.61-.67-6.31-1.63-12.6-2.75-18.85-.26-1.44-1.71-2.66-2.61-3.98-1.24,1.28-3.01,2.36-3.6,3.9-.89,2.33-1.23,4.97-1.32,7.49-.2,5.31-.06,10.63-.15,15.95-.02.85-.55,1.69-.85,2.54-.39-.05-.79-.09-1.18-.14-3.24-10.13-1.36-20.62-1.42-31.77-1.02,1.07-1.97,1.6-2.07,2.27-.37,2.42-.63,4.88-.61,7.33.04,4.92.36,9.83.43,14.74.03,2.36-.38,4.72-.36,7.08.07,8.91.29,17.83.34,26.74.06,10.83-.03,21.65,0,32.48.01,3.65.21,7.3.35,11.7.98-1.3,1.39-1.85,1.8-2.4.28.27.55.53.83.8-1.28,1.17-2.57,2.35-4.05,3.7,4.67,2.92,9.27,5.8,13.81,8.64.34-.16.97-.69,1.65-.74,1.47-.11,3.4.63,4.34-.06,2.21-1.63,2.81-.7,3.21,1.62,1.14-.9,2.42-1.43,2.9-2.37,1.07-2.12,2.26-1.41,3.31-.32,1.5,1.56,2.62,1.45,3.54-.44,1.09.36,2.05.68,3.15,1.04.85-1.25,2.22-2.36,2.31-3.57.23-3.28-.09-6.61-.16-9.91-.08-3.7-.23-7.4-.11-11.1.02-.71,1.19-1.38,1.82-2.07.44.68,1.31,1.4,1.24,2.02-.24,2.14,1.07,4.29-.33,6.51-.5.79.28,2.4.5,3.77-.23,1.38-.5,3.03-.79,4.81,2,.14,3.63.75,4.7.23,2.38-1.16-.56-2.45-.29-3.78Z"/>
          <path class="cls-4" d="m316.95,690.62c-.21.83-.42,1.66-.68,2.72-.87-1.36-1.55-2.43-2.56-4.01.04-.88,1.27-2.86-1.51-3.37-.42.57-.82,1.12-1.7,2.33.13-2.78.22-4.77.34-7.21-2.18,1.15-4.51,7.7-3.36,8.88,1.57,1.61,3.41,3.13,5.42,4.07,1.23.57,3-.03,4.66-.11-.11-1.46-.18-2.36-.25-3.27-.12,0-.24-.02-.36-.03Z"/>
          <path class="cls-4" d="m345.19,574.23c.55.9,1.16,1.75,1.7,2.66.61,1.04,1.16,2.11,1.73,3.16.32-.12.63-.25.95-.37-.43-1.8-.79-3.62-1.33-5.39-.24-.79-.66-1.88-1.28-2.12-.78-.31-1.85.11-2.79.21.34.62.65,1.25,1.02,1.85Z"/>
          <path class="cls-4" d="m316.95,690.62c-.21.83-.42,1.66-.68,2.72-.87-1.36-1.55-2.43-2.56-4.01.04-.88,1.27-2.86-1.51-3.37-.42.57-.82,1.12-1.7,2.33.13-2.78.22-4.77.34-7.21-2.18,1.15-4.51,7.7-3.36,8.88,1.57,1.61,3.41,3.13,5.42,4.07,1.23.57,3-.03,4.66-.11-.11-1.46-.18-2.36-.25-3.27-.12,0-.24-.02-.36-.03Z"/>
          <path class="cls-4" d="m347.84,669.31c.02-.09,0-.19,0-.28.14-6.81.29-13.63.42-20.44.04-1.88,0-3.77,0-5.65-.32-.06-.63-.11-.95-.17-1.57,3.37-1.26,7.93-6.08,10.05,0-1.56-.17-2.69.04-3.74.29-1.47,1.11-2.85,1.24-4.32.27-3.1.83-5.81,3.84-7.59.86-.51,1.43-2.2,1.43-3.36.07-13.3.18-26.6-.13-39.9-.1-4.19-1.45-8.34-2.24-12.51-.12-.64-.62-1.49-.37-1.88,1.87-3.03-.41-3.93-2.67-5.13-.2.87-.46,1.66-.54,2.47-.97,10.01-1.92,20.01-2.85,30.02-1.36,14.63-2.69,29.26-4.03,43.89-.26,2.86-2.37,3.32-4.64,3.59-2.24.27-3.9-.18-4.18-2.87-.44-4.15-1.08-8.27-1.5-12.42-1.47-14.53-2.79-29.08-4.34-43.61-.67-6.31-1.63-12.6-2.75-18.85-.26-1.44-1.71-2.66-2.61-3.98-1.24,1.28-3.01,2.36-3.6,3.9-.89,2.33-1.23,4.97-1.32,7.49-.2,5.31-.06,10.63-.15,15.95-.02.85-.55,1.69-.85,2.54-.39-.05-.79-.09-1.18-.14-3.24-10.13-1.36-20.62-1.42-31.77-1.02,1.07-1.97,1.6-2.07,2.27-.37,2.42-.63,4.88-.61,7.33.04,4.92.36,9.83.43,14.74.03,2.36-.38,4.72-.36,7.08.07,8.91.29,17.83.34,26.74.06,10.83-.03,21.65,0,32.48.01,3.65.21,7.3.35,11.7.98-1.3,1.39-1.85,1.8-2.4.28.27.55.53.83.8-1.28,1.17-2.57,2.35-4.05,3.7,4.67,2.92,9.27,5.8,13.81,8.64.34-.16.97-.69,1.65-.74,1.47-.11,3.4.63,4.34-.06,2.21-1.63,2.81-.7,3.21,1.62,1.14-.9,2.42-1.43,2.9-2.37,1.07-2.12,2.26-1.41,3.31-.32,1.5,1.56,2.62,1.45,3.54-.44,1.09.36,2.05.68,3.15,1.04.85-1.25,2.22-2.36,2.31-3.57.23-3.28-.09-6.61-.16-9.91-.08-3.7-.23-7.4-.11-11.1.02-.71,1.19-1.38,1.82-2.07.44.68,1.31,1.4,1.24,2.02-.24,2.14,1.07,4.29-.33,6.51-.5.79.28,2.4.5,3.77-.23,1.38-.5,3.03-.79,4.81,2,.14,3.63.75,4.7.23,2.38-1.16-.56-2.45-.29-3.78Z"/>
          <path class="cls-4" d="m346.96,572.17c-.78-.31-1.85.11-2.79.21.34.62.65,1.25,1.02,1.85.55.9,1.16,1.75,1.7,2.66.61,1.04,1.16,2.11,1.73,3.16.32-.12.63-.25.95-.37-.43-1.8-.79-3.62-1.33-5.39-.24-.79-.66-1.88-1.28-2.12Z"/>
          <path class="cls-4" d="m316.94,690.62c-.21.83-.42,1.66-.68,2.72-.87-1.36-1.55-2.43-2.56-4.01.04-.88,1.27-2.86-1.51-3.37-.42.57-.82,1.12-1.71,2.33.13-2.78.22-4.77.34-7.21-2.18,1.15-4.51,7.7-3.36,8.88,1.57,1.61,3.41,3.13,5.42,4.07,1.23.57,3-.03,4.66-.11-.11-1.46-.18-2.36-.25-3.27-.12,0-.24-.02-.36-.03Z"/>
          <path class="cls-4" d="m330.97,516.69h-2.32c-1.1,0-2.05.78-2.26,1.86l-10.29,52.47c1.05.54,2.08,1.79,2.68,2.85.8,1.43,1.05,3.25,1.25,4.93.77,6.48,1.41,12.98,2.12,19.48,1.44,13.1,2.92,26.19,4.35,39.29.47,4.33.94,8.66,1.22,13,.15,2.22,1.65,2.18,2.99,1.94.82-.15,2.07-1.08,2.14-1.76,1.29-12.27,2.49-24.55,3.59-36.84.82-9.16,1.41-18.35,2.24-27.52.38-4.24.99-8.47,1.69-12.67.16-.98.37-1.75.65-2.35l-8.02-52.9c-.15-1.02-1.01-1.76-2.05-1.76Z"/>
          <path class="cls-4" d="m308.53,594.16c.11-.98.29-1.95.31-2.93.04-3.32-.28-6.68.1-9.96.33-2.85,1.09-5.77,2.3-8.35.44-.93,1.92-1.84,3.16-2.11l10.31-52.6c.37-1.88,2.02-3.24,3.94-3.24h2.32c1.88,0,3.46,1.35,3.74,3.21l7.83,51.68c.81-.31,1.9-.34,3.42-.16,0-2.94,0-5.85,0-8.75,0-9.84,0-19.69,0-29.53-3.88-6.84-7.65-13.81-11.23-20.79-2.33-4.55-4.62-9.18-6.82-13.78l-1.68,3.66c-1.95,5.43-4.13,10.85-6.49,16.11-3.48,7.76-7.45,15.4-11.8,22.74-.06,2.71-.11,5.42-.14,8.13-.15,13.2-.22,26.4-.31,39.59-.02,2.34,0,4.68,0,7.03.35.02.7.03,1.04.05Z"/>
          <path class="cls-4" d="m346.95,572.17c-.78-.31-1.85.11-2.79.21.34.62.65,1.25,1.02,1.85.55.9,1.16,1.75,1.7,2.66.61,1.04,1.16,2.11,1.73,3.16.32-.12.63-.25.95-.37-.43-1.8-.79-3.62-1.33-5.39-.24-.79-.66-1.88-1.28-2.12Z"/>
          <path class="cls-4" d="m347.83,669.31c.02-.09,0-.19,0-.28.14-6.81.29-13.63.42-20.44.04-1.88,0-3.77,0-5.65-.32-.06-.63-.11-.95-.17-1.57,3.37-1.26,7.93-6.08,10.05,0-1.56-.17-2.69.04-3.74.29-1.47,1.11-2.85,1.24-4.32.27-3.1.83-5.81,3.84-7.59.86-.51,1.43-2.2,1.43-3.36.07-13.3.18-26.6-.13-39.9-.1-4.19-1.45-8.34-2.24-12.51-.12-.64-.62-1.49-.37-1.88,1.66-2.69.05-3.71-1.91-4.73-.12.23-.35.41-.63.45-.04,0-.09,0-.13,0-.07,0-.14-.02-.2-.04-.15.56-.29,1.1-.34,1.65-.97,10.01-1.92,20.01-2.85,30.02-1.36,14.63-2.69,29.26-4.03,43.89-.26,2.86-2.37,3.32-4.64,3.59-2.24.27-3.9-.18-4.18-2.87-.44-4.15-1.08-8.27-1.5-12.42-1.47-14.53-2.79-29.08-4.34-43.61-.67-6.31-1.63-12.6-2.75-18.85-.21-1.19-1.24-2.23-2.09-3.3-.19.14-.43.21-.68.16-.18-.04-.34-.13-.45-.25-1.15,1.04-2.49,2.01-2.98,3.31-.89,2.33-1.23,4.97-1.32,7.49-.2,5.31-.06,10.63-.15,15.95-.02.85-.55,1.69-.85,2.54-.39-.05-.79-.09-1.18-.14-3.24-10.13-1.36-20.62-1.42-31.77-1.02,1.07-1.97,1.6-2.07,2.27-.37,2.42-.63,4.88-.61,7.33.04,4.92.36,9.83.43,14.74.03,2.36-.38,4.72-.36,7.08.07,8.91.29,17.83.34,26.74.06,10.83-.03,21.65,0,32.48.01,3.65.21,7.3.35,11.7.98-1.3,1.39-1.85,1.8-2.4.28.27.55.53.83.8-1.28,1.17-2.57,2.35-4.05,3.7,4.67,2.92,9.27,5.8,13.81,8.64.34-.16.97-.69,1.65-.74,1.47-.11,3.4.63,4.34-.06,2.21-1.63,2.81-.7,3.21,1.62,1.14-.9,2.42-1.43,2.9-2.37,1.07-2.12,2.26-1.41,3.31-.32,1.5,1.56,2.62,1.45,3.54-.44,1.09.36,2.05.68,3.15,1.04.85-1.25,2.22-2.36,2.31-3.57.23-3.28-.09-6.61-.16-9.91-.08-3.7-.23-7.4-.11-11.1.02-.71,1.19-1.38,1.82-2.07.44.68,1.31,1.4,1.24,2.02-.24,2.14,1.07,4.29-.33,6.51-.5.79.28,2.4.5,3.77-.23,1.38-.5,3.03-.79,4.81,2,.14,3.63.75,4.7.23,2.38-1.16-.56-2.45-.29-3.78Z"/>
          <path d="m349.62,573.37c-.31-.66-.64-1.35-.95-2.04.24-.15.41-.42.41-.73v-36.91c0-.15-.04-.3-.11-.43-.59-1.04-1.18-2.08-1.77-3.12l-1.24-2.18c-3.34-5.97-6.6-12.04-9.7-18.1-2.6-5.08-5.15-10.26-7.58-15.38-.14-.3-.44-.49-.77-.49h0c-.33,0-.63.2-.77.5l-2.46,5.36s-.02.04-.03.07c-1.94,5.4-4.11,10.79-6.45,16.02-3.04,6.77-6.45,13.44-10.16,19.9,0,0-2.13,2.33-5.23,4.93-.17,4.93-.35,9.86-.41,14.8-.06,4.72.78,9.45.73,14.18-.08,6.44-.62,12.88-.97,19.4.22-.37.39-.66.57-.95.52,1.27.56,2.53.51,3.78-.12,3.68-.41,7.37-.38,11.05.03,4.55.43,9.09.45,13.64.06,18.04.04,36.08.02,54.13,0,.71-.04,1.61-.44,2.11-1.95,2.42-.42,3.37,1.5,4.59.97.62,1.85,1.95,2.06,3.08.29,1.62-.18,3.36-.14,5.04.05,2.63-2.16,6.1,2.47,7.19.19.04.24.55.45.68,1.12.67,2.21,1.64,3.43,1.85,2.2.38,4.49.21,6.72.44,2.43.25,5.11,1.54,7.21.87,5.59-1.78,11.81.95,17.22-3.33,2.22-1.76,2.98-2.81,2.38-5.15-.71-2.8-.89-5.54.24-8.28.27-.66.3-1.42.44-2.13-.27-.08-.53-.17-.8-.25-.37.68-.74,1.36-1.17,2.15-.26-2.6.21-3.05,3.59-5.34.89-.6,1.99-2.46,1.68-2.99-2.19-3.83-1.4-7.97-1.47-11.94-.14-8.5.19-17.01.19-25.51,0-8.75-.08-17.5-.14-26.24l2.2-4.74c.13-1.07.34-2.13.38-3.21.14-3.5-.08-7.05.41-10.5.78-5.52.26-10.72-2.1-15.8Zm-42.13,13.73c.1-13.2.16-26.4.31-39.59.03-2.71.08-5.42.14-8.13,4.36-7.34,8.32-14.98,11.8-22.74,2.36-5.26,4.54-10.67,6.49-16.11l1.68-3.66c2.2,4.6,4.49,9.23,6.82,13.78,3.57,6.98,7.35,13.95,11.23,20.79,0,9.84,0,19.69,0,29.53,0,2.9,0,5.8,0,8.75-1.52-.17-2.61-.15-3.42.16l-7.83-51.68c-.28-1.86-1.85-3.21-3.74-3.21h-2.32c-1.91,0-3.57,1.36-3.94,3.24l-10.31,52.6c-1.24.26-2.72,1.18-3.16,2.11-1.22,2.58-1.98,5.5-2.3,8.35-.38,3.28-.06,6.64-.1,9.96-.01.98-.2,1.95-.31,2.93-.35-.02-.7-.03-1.04-.05,0-2.34-.01-4.68,0-7.03Zm33.54-15.75c-.28.6-.49,1.37-.65,2.35-.69,4.2-1.3,8.43-1.69,12.67-.83,9.16-1.42,18.35-2.24,27.52-1.1,12.29-2.3,24.57-3.59,36.84-.07.68-1.32,1.61-2.14,1.76-1.34.25-2.84.28-2.99-1.94-.29-4.34-.75-8.67-1.22-13-1.43-13.1-2.91-26.19-4.35-39.29-.72-6.49-1.35-12.99-2.12-19.48-.2-1.68-.45-3.5-1.25-4.93-.6-1.06-1.63-2.31-2.68-2.85l10.29-52.47c.21-1.08,1.16-1.86,2.26-1.86h2.32c1.03,0,1.89.74,2.05,1.76l8.02,52.9Zm-28.14,122.67c-2.01-.94-3.86-2.45-5.42-4.07-1.15-1.18,1.18-7.73,3.36-8.88-.12,2.44-.21,4.43-.34,7.21.89-1.21,1.29-1.76,1.71-2.33,2.78.51,1.54,2.49,1.51,3.37,1.01,1.58,1.7,2.65,2.56,4.01.26-1.06.47-1.89.68-2.72.12.01.24.02.36.03.07.91.14,1.81.25,3.27-1.66.08-3.43.68-4.66.11Zm12.82,1.47c-2.45-.35-5.17.2-6.41-2.17,1.15-2.1,2.06-3.77,3.38-6.19.32,2.02.56,3.54.81,5.17,2.63-.35,1.64-2.62,1.96-4.16.39.07.77.14,1.16.2-.3,2.36-.6,4.72-.91,7.14Zm11.57-1.1h-5.09c.68-2.68,1.26-5,1.85-7.32.37.12.74.25,1.11.37-.55,1.51-1.1,3.02-1.65,4.52.91.44,1.75.86,2.72,1.33.25-.51.51-1.03,1.06-2.17v3.26Zm10.85-21.29c-1.07.52-2.7-.09-4.7-.23.29-1.78.57-3.43.79-4.81-.22-1.36-1-2.97-.5-3.77,1.41-2.22.1-4.37.33-6.51.07-.62-.8-1.35-1.24-2.02-.64.69-1.8,1.36-1.82,2.07-.13,3.69.03,7.4.11,11.1.07,3.31.39,6.63.16,9.91-.09,1.2-1.45,2.31-2.31,3.57-1.1-.36-2.05-.68-3.15-1.04-.93,1.89-2.04,1.99-3.54.44-1.05-1.09-2.24-1.79-3.31.32-.48.94-1.76,1.47-2.9,2.37-.4-2.32-1-3.25-3.21-1.62-.94.69-2.87-.05-4.34.06-.67.05-1.31.58-1.65.74-4.54-2.84-9.14-5.72-13.81-8.64,1.48-1.35,2.77-2.52,4.05-3.7-.28-.27-.55-.53-.83-.8-.41.55-.82,1.09-1.8,2.4-.14-4.4-.34-8.05-.35-11.7-.04-10.83.06-21.65,0-32.48-.05-8.91-.27-17.83-.34-26.74-.02-2.36.39-4.72.36-7.08-.07-4.92-.39-9.83-.43-14.74-.02-2.44.24-4.91.61-7.33.1-.66,1.05-1.19,2.07-2.27.06,11.15-1.83,21.64,1.42,31.77.39.05.79.09,1.18.14.3-.85.83-1.69.85-2.54.1-5.32-.05-10.64.15-15.95.1-2.52.43-5.16,1.32-7.49.49-1.29,1.83-2.26,2.98-3.31.12.12.27.21.45.25.25.05.49-.02.68-.16.86,1.07,1.88,2.11,2.09,3.3,1.12,6.25,2.08,12.54,2.75,18.85,1.55,14.53,2.88,29.07,4.34,43.61.42,4.15,1.06,8.27,1.5,12.42.28,2.69,1.94,3.14,4.18,2.87,2.27-.27,4.37-.73,4.64-3.59,1.34-14.63,2.68-29.26,4.03-43.89.93-10.01,1.88-20.02,2.85-30.02.05-.55.19-1.09.34-1.65.07.02.13.04.2.04.04,0,.09,0,.13,0,.28-.04.51-.22.63-.45,1.96,1.03,3.57,2.04,1.91,4.73-.25.4.25,1.24.37,1.88.79,4.17,2.14,8.33,2.24,12.51.32,13.29.2,26.6.13,39.9,0,1.15-.57,2.85-1.43,3.36-3.02,1.79-3.58,4.5-3.84,7.59-.13,1.46-.95,2.85-1.24,4.32-.21,1.05-.04,2.18-.04,3.74,4.83-2.12,4.51-6.67,6.08-10.05.32.06.63.11.95.17,0,1.88.03,3.77,0,5.65-.13,6.81-.28,13.63-.42,20.44,0,.1.02.19,0,.28-.27,1.33,2.67,2.62.29,3.78Zm.49-93.04c-.57-1.06-1.12-2.13-1.73-3.16-.53-.91-1.15-1.76-1.7-2.66-.37-.6-.68-1.23-1.02-1.85.94-.1,2.01-.52,2.79-.21.62.24,1.04,1.33,1.28,2.12.53,1.77.9,3.59,1.33,5.39-.32.12-.63.25-.95.37Z"/>
        </g>
        <g>
          <path class="cls-6" d="m308.81,33.08c.93-2.83,1.64-5.76,2.84-8.47,2.78-6.29,5.49-12.65,8.84-18.64,2.12-3.79,5.58-6.57,10.54-5.86.9.13,1.9.42,2.59.96,4.11,3.25,7.31,7.17,9.25,12.13,1.97,5.06,4.44,9.94,6.24,15.06,1.17,3.32,1.63,6.92,2.21,10.42.38,2.29.55,4.64.52,6.96-.03,2.04-.51,4.07-.72,6.12-.44,4.34.97,8.39,2.96,12,3.9,7.09,4.18,14.63,3.84,22.36-.08,1.89-.6,3.01-2.88,3.11-2.07.09-4.09,1.04-6.16,1.37-4.65.75-9.32,1.72-14,1.91-5.59.23-11.21-.12-16.8-.51-2.62-.18-5.2-1.02-7.79-1.61-1.77-.41-3.51-1.27-5.27-1.29-3.03-.03-3.54-1.68-3.8-4.2-.84-8.02,1.12-15.41,4.6-22.52,2.01-4.1,2.71-8.46,2.43-13l-.09.08c9.1-.39,18.19-.78,27.29-1.17-5.29-.67-10.57-.68-15.84-.66-3.96.01-5.04-.95-5.57-4.99-.24-1.85-.55-3.7-.82-5.55-.24-.04-.48-.07-.72-.11-1.14,2.55-2.27,5.11-3.46,7.77-.86-3.5,1.89-5.58,2.95-8.26.38-.97.94-2.15.67-2.99-.21-.65-1.58-.93-2.45-1.39,1.83-1.39,2.79-.54,3.21,1.37.73,3.31,1.47,6.63,2.02,9.97.4,2.37,1.28,3.5,3.99,3.38,5.52-.24,11.07-.07,16.52-.07.88,2.53.02,3.25-2.24,3.22-7.21-.08-14.42-.02-21.62-.03-1.64,0-3.3,0-3.18,2.32.24,4.83-1.3,9.27-3.55,13.34-3.6,6.52-3.16,13.5-3.03,20.48.01.61.53,1.6,1.02,1.75,3.68,1.14,7.36,2.65,11.13,3.01,6.41.63,12.9.33,19.34.74,8,.51,15.32-2.45,23-4.05.05-7.52.86-15.05-2.99-22.19-2.22-4.12-4.23-8.54-3.75-13.58.05-.54-1.27-1.65-2.03-1.73-2.3-.23-4.64-.08-7.88-.08,1.16-1.82,2.02-3.17,2.88-4.53.21.12.41.24.62.36-.59,1.05-1.17,2.11-1.91,3.44,2.27-.14,4.25-.27,6.79-.43-1.11-3.44-2.38-6.43-2.95-9.54-.31-1.71.51-3.64.99-5.43.03-.11,2.27.03,2.35.35.48,1.89.63,3.87.89,5.82-.44.07-.87.14-1.31.22-.29-1.02-.57-2.04-.86-3.06-.31.04-.62.07-.93.11.26,1.3.1,2.93.85,3.84,2.06,2.51,2.38,5.24,2.18,8.41.62-.48,1.18-1.11,1.2-1.76.05-2.13-.12-4.27-.15-6.41-.07-4.4-.51-8.67-2.44-12.77-2.31-4.91-3.98-10.14-6.43-14.98-1.81-3.59-4.08-7.09-6.8-10.03-1.44-1.55-4.28-2.47-6.48-2.47-3.77,0-8.86,5.64-9.43,9.23,2.86-.63,5.86-1.29,8.86-1.94.05.27.1.54.15.81-1.11.15-2.29.12-3.32.48-2.41.85-5.81,1.23-6.9,2.99-2.41,3.88-3.63,8.5-5.34,12.81-.07.2-.03.37.09.54-1.34,2.34-2.67,4.68-4.01,7.02,0,0,.08.04.08.04Z"/>
          <g>
            <path class="cls-6" d="m308.24,49.39c-.32-.15-.92-.32-.91-.46.19-4.79.42-9.59.72-14.37.03-.51.49-.99.76-1.48,0,0-.08-.04-.08-.04-.19,5.48-.39,10.96-.58,16.44l.09-.08Z"/>
            <path class="cls-6" d="m308.15,50.44c-.14,0-.28-.03-.41-.09-.13-.06-.24-.15-.33-.25-.47-.19-1.07-.48-1.04-1.2.21-5.31.45-10.02.72-14.39.04-.61.36-1.1.63-1.49.02-.03.04-.06.06-.09.04-.29.2-.55.46-.7.28-.17.62-.19.91-.05l.08.04c.24.11.42.32.51.57.08.24.06.49-.04.71l-.55,15.53c.03.08.06.16.07.24.04.32-.07.64-.31.85l-.09.08c-.18.16-.41.24-.64.24Z"/>
          </g>
          <path class="cls-6" d="m312.65,25.49c.16.16.19.33.09.54-.13-.16-.16-.34-.09-.54Z"/>
          <path class="cls-6" d="m309.01,87.42c-.45-11.67-1.71-23.37.92-34.86-.3,11.56-.61,23.21-.92,34.86Z"/>
          <path class="cls-6" d="m331.2,56.36c.37,1.44.93,2.62.94,3.81.09,9.82.08,19.64.09,29.47,0,.35-.12.71-.18,1.06-.28,0-.56,0-.84-.01v-34.32Z"/>
          <path class="cls-6" d="m328.98,90.95v-13.17c-.23-.02-.47-.04-.7-.07-.12.71-.25,1.42-.37,2.13-.18-.02-.37-.04-.55-.06.6-7.44,1.21-14.88,1.81-22.33.22,0,.44,0,.66,0v33.39c-.28.03-.57.06-.85.09Z"/>
          <path class="cls-6" d="m305.57,86.75v-19.06c.17,0,.34,0,.5,0v19.05c-.17,0-.34,0-.5,0Z"/>
          <path class="cls-6" d="m321.69,89.67v-37.74h.41v37.76l-.41-.02Z"/>
          <path class="cls-6" d="m319.45,76.89v-24.91c.12,0,.23,0,.35,0v24.91c-.12,0-.23,0-.35,0Z"/>
          <path class="cls-6" d="m321.22,21.84c1.69,2.63.97,4.51-.88,6.31-2.07-2.02-1.87-3.7.88-6.31Z"/>
          <path class="cls-6" d="m338.13,22.08c.47.39.96.59,1.01.88.3,1.5.48,3.03.71,4.55-.58,0-1.49.23-1.69-.04-1.13-1.61-1.94-3.34-.03-5.38Z"/>
          <path class="cls-6" d="m335.33,69.26h3.16c-.14,1.2-.16,2.31-.45,3.33-.1.34-.91.48-1.4.72-.41-1.26-.81-2.52-1.31-4.05Z"/>
          <path class="cls-6" d="m335.15,16.7c-2.35-.23-4.69-.46-7.04-.69.02-.19.03-.37.05-.56h7.07c-.02.42-.05.83-.07,1.25Z"/>
        </g>
      </g>
      <g>
        <path class="cls-3" d="m61.56,745.49c-.03-3.15,1.13-3.91,4.07-3.87,11.13.14,22.27.14,33.41,0,3.01-.04,4.09.86,4.03,3.93-.16,8.47-.06,16.95-.06,25.43,0,7.41-.08,14.83.02,22.24h47.17c.1-15.89.11-31.77,0-47.66-.02-3.08,1.06-3.97,4.05-3.94,11.13.14,22.27.18,33.4-.02,3.51-.06,4.1,1.39,4.05,4.42-.16,8.14-.05,16.29-.05,24.43,0,7.59-.09,15.18.03,22.76h46.97c.1-15.75.11-31.5,0-47.25-.02-3.12.7-4.43,4.14-4.37,11.15.2,22.31.2,33.46,0,3.48-.06,4.17,1.31,4.12,4.4-.16,8.32-.05,16.65-.05,24.97,0,7.42-.09,14.83.03,22.25h46.98c.16-7.51.04-15.02.04-22.53,0-8.14.13-16.29-.06-24.43-.07-3.27.61-4.74,4.32-4.66,10.96.23,21.94.18,32.9.02,3.21-.05,4.32.88,4.29,4.21-.14,15.8-.15,31.6,0,47.39h47.14c.1-15.9.1-31.8-.02-47.7-.02-3.1,1.09-3.94,4.06-3.9,11.13.14,22.28.19,33.41-.02,3.54-.07,4.09,1.43,4.04,4.43-.14,8.14-.05,16.29-.05,24.44,0,7.59-.08,15.17.03,22.76h47.4c.24-13.84.09-27.68.09-41.52,0-9.34,0-9.53,9.26-9.46,3.7.03,4.38-1.38,4.32-4.67-.18-9.49-.35-18.99.06-28.47.22-4.99-1.09-6.35-6.24-6.34-88.24.18-176.48.13-264.73.13q-10.12,0-10.12-10.2c0-11.27-.01-11.54-11.44-11.19-4.87.15-5.65-1.62-5.63-5.94.16-32.63.09-65.27.09-97.91,0-70.43,0-140.86,0-211.3q0-6.34,6.52-6.34c17.81,0,35.63,0,53.44,0,9.06,0,18.11,0,27.17,0v-56.04c-11.55-.03-23.1,0-34.65,0-15.97,0-31.95-.13-47.91.09-3.86.05-4.67-1.18-4.64-4.8.16-22.29.15-44.59,0-66.89-.02-3.58.75-4.88,4.63-4.86,27.52.13,55.05.14,82.57.05v-56.14c-27.17-.18-54.35-.14-81.52.05-4.69.03-5.71-1.38-5.7-5.83.15-50.62.09-101.24.09-151.85,0-1.17,0-2.33-.02-3.5-.02-1.03-.16-2.25-1.45-2.17-5.06.33-10.1-1.48-14.79,3.25-29.07,29.32-58.45,58.34-87.84,87.33-2.73,2.7-3.71,5.39-3.7,9.14.09,86.75.05,173.5.14,260.25,0,3.75-.96,6.46-3.68,9.17-29.36,29.27-58.54,58.71-87.9,87.99-2.72,2.71-3.72,5.41-3.72,9.17.1,65.1.07,130.21.07,195.31,0,11.57,0,11.85-11.75,11.49-4.73-.15-5.37,1.58-5.32,5.66.21,15.32.08,30.64.08,45.95,0,9.12,0,9.35,9.03,9.18,4-.08,4.6,1.47,4.56,4.95-.16,15.41-.25,30.83.03,46.24h47.37c.11-15.91.11-31.82-.02-47.72Z"/>
        <path class="cls-3" d="m167.23,145.59c-1.55,1.59-2.51,1.41-3.99-.09-10.4-10.49-20.89-20.9-32.1-32.08h67.71c-10.7,10.87-21.2,21.48-31.62,32.17Z"/>
        <path class="cls-3" d="m207.6,116.94v73.29c-5.13-5.3-9.43-9.83-13.84-14.27-6.68-6.74-13.42-13.4-20.13-20.11-1.27-1.27-2.83-2.25-.68-4.36,11.35-11.18,22.57-22.48,34.65-34.55Z"/>
        <path class="cls-3" d="m167.15,160.95c10.87,10.93,21.83,21.78,33.66,33.56h-69.18c-.58-1.71.81-2.23,1.52-2.95,9.84-9.92,19.72-19.8,29.62-29.65,1.2-1.19,2.2-3.14,4.38-.96Z"/>
        <path class="cls-3" d="m200.23,205.06c-5.08,4.95-9.34,9.05-13.53,13.21-6.26,6.21-12.48,12.48-18.73,18.7-1.24,1.23-2.18,3-4.35.82-10.65-10.68-21.43-21.24-33.06-32.73h69.67Z"/>
        <path class="cls-3" d="m157.78,243.36c1.17,1.2,1.86,2.06.3,3.62-10.59,10.5-21.1,21.09-32.35,32.37v-66.72c.39-.31.77-.61,1.16-.92,10.29,10.56,20.57,21.13,30.89,31.66Z"/>
        <path class="cls-3" d="m163.64,252.98c1.1-1.1,2.02-1.52,3.32-.22,10.87,10.91,21.77,21.78,33.36,33.36h-70.01c11.73-11.65,22.54-22.38,33.33-33.14Z"/>
        <path class="cls-3" d="m199.11,296.8c.2,1.66-1.27,2.2-2.11,3.04-9.6,9.69-19.26,19.32-28.89,28.97-1.41,1.42-2.46,3.05-4.74.74-10.53-10.63-21.22-21.12-32.96-32.76h68.71Z"/>
        <path class="cls-3" d="m167.49,345.21c10.32,10.58,20.82,20.99,31.23,31.48.18.18.15.56.29,1.18h-66.95c-.47-1.56.84-2.11,1.56-2.84,9.56-9.7,19.17-19.36,28.75-29.04,1.53-1.55,2.68-3.28,5.12-.77Z"/>
        <path class="cls-3" d="m199.06,388.54c.43,1.68-.92,2.15-1.63,2.87-9.72,9.79-19.48,19.54-29.24,29.3-1.36,1.35-2.41,3.24-4.74.87-10.48-10.67-21.1-21.22-31.65-31.82-.18-.18-.14-.59-.27-1.21h67.53Z"/>
        <path class="cls-3" d="m130.9,561.43c11.45-11.39,22.15-21.98,32.78-32.64,1.3-1.3,2.17-1.01,3.27.12,10.52,10.77,21.06,21.53,31.82,32.52h-67.88Z"/>
        <path class="cls-3" d="m199.38,572.02c.64,1.05-.14,1.57-.69,2.13-10.22,10.23-20.44,20.46-30.68,30.67-1.24,1.23-2.23,3.02-4.37.86-10.88-10.95-21.86-21.81-33.77-33.66h69.52Z"/>
        <path class="cls-3" d="m163.53,513.64c-10.76-10.85-21.64-21.59-33.46-33.36h69.34c.36.46.72.91,1.09,1.37-3.92,3.49-7.96,6.86-11.72,10.51-7.04,6.84-13.92,13.84-20.85,20.79-1.31,1.31-2.32,2.77-4.39.69Z"/>
        <path class="cls-3" d="m132.15,469.73c-.51-1.55.84-2.07,1.56-2.8,9.61-9.69,19.29-19.32,28.9-29.01,1.65-1.66,2.78-2.93,5.12-.54,10.36,10.58,20.92,20.97,32.33,32.35h-67.92Z"/>
        <path class="cls-3" d="m157.5,427.19c1.59,1.58,1.93,2.57.17,4.37-10.24,10.45-20.35,21.02-30.5,31.56-.47-.3-.93-.59-1.4-.89v-66.8c11.04,11.07,21.34,21.46,31.73,31.77Z"/>
        <path class="cls-3" d="m157.55,519.19c1.39,1.4,1.85,2.36.19,4.01-10.47,10.41-20.83,20.92-32.05,32.23v-68.37c11.24,11.35,21.52,21.76,31.86,32.13Z"/>
        <path class="cls-3" d="m126.55,579.7c3.72,3.9,7.38,7.85,11.17,11.68,6.43,6.51,12.92,12.95,19.4,19.41,1.3,1.29,2.77,2.26.67,4.33-10.49,10.4-20.86,20.93-32.26,32.41v-67.05c.34-.26.68-.53,1.01-.79Z"/>
        <path class="cls-3" d="m133.5,651.06c9.73-9.81,19.5-19.57,29.21-29.4,1.57-1.59,2.65-2.6,4.73-.42,10.24,10.69,20.63,21.24,31.3,32.17h-66.3c-.75-1.24.45-1.74,1.06-2.35Z"/>
        <path class="cls-3" d="m192.38,634.42c-6.21-6.24-12.44-12.47-18.68-18.68-1.33-1.32-2.71-2.3-.63-4.36,11.32-11.2,22.52-22.53,34.56-34.62v73.12c-5.53-5.61-10.37-10.55-15.25-15.46Z"/>
        <path class="cls-3" d="m201.72,551.78c-9.32-9.26-18.63-18.54-27.97-27.79-1.49-1.47-2.85-2.5-.59-4.74,11.25-11.09,22.32-22.35,34.58-34.67v73.13c-2.39-2.35-4.21-4.14-6.02-5.93Z"/>
        <path class="cls-3" d="m205.98,463.95c-10.84-10.8-21.66-21.62-32.51-32.41-1.25-1.25-2.32-2.19-.5-3.99,11.25-11.09,22.42-22.27,33.63-33.4.18-.18.59-.12,1.23-.22v70.44c-.96.6-1.41.02-1.85-.42Z"/>
        <path class="cls-3" d="m207.81,372.66c-1.57.55-2.04-.88-2.75-1.57-10.39-10.31-20.75-20.65-31.05-31.04-1.21-1.22-3.59-2.21-1.08-4.69,11.34-11.19,22.56-22.5,34.87-34.83v72.14Z"/>
        <path class="cls-3" d="m207.79,280.55c-1.58.57-2.09-.8-2.8-1.5-10.37-10.29-20.71-20.62-31.01-30.97-1.26-1.27-3.49-2.24-1.02-4.68,11.32-11.18,22.5-22.5,34.83-34.86v72.01Z"/>
        <path class="cls-3" d="m172.13,55.91c11.62-11.59,22.99-23.43,34.44-35.18.4.28.81.56,1.21.83v75.4c-2.08-.16-2.88-1.78-3.97-2.87-10.61-10.53-21.05-21.22-31.79-31.61-2.77-2.68-2.48-3.99.11-6.57Z"/>
        <path class="cls-3" d="m127,100.86c11.22-11.15,22.43-22.31,33.68-33.42,1.05-1.04,1.91-2.88,3.92-.85,11.69,11.79,23.46,23.5,36.11,36.14h-74.02c-.67-.91-.15-1.42.3-1.87Z"/>
        <path class="cls-3" d="m125.72,120.63c.37-.29.74-.59,1.11-.88,10.31,10.56,20.59,21.15,30.95,31.65,1.52,1.54,1.5,2.47-.03,3.99-10.47,10.41-20.86,20.9-32.03,32.12v-66.89Z"/>
        <path class="cls-3" d="m125.53,304.54c1.76-.42,2.3,1.12,3.14,1.94,9.47,9.32,18.9,18.68,28.33,28.05,1.35,1.34,3.17,2.34.79,4.68-10.51,10.36-20.85,20.9-32.26,32.39v-67.06Z"/>
        <path class="cls-3" d="m36.03,572.05h67.94c.8,1.5-.65,2.04-1.36,2.75-9.96,10.03-20.01,19.98-29.93,30.05-1.85,1.87-2.98,2.39-5.11.21-10.23-10.46-20.65-20.74-30.99-31.1-.44-.45-1.11-.83-.56-1.92Z"/>
        <path class="cls-3" d="m35.96,560.54c2.63-2.41,5.35-4.73,7.89-7.24,7.92-7.83,15.79-15.71,23.62-23.64,1.59-1.61,2.68-2.53,4.77-.41,10.39,10.53,20.93,20.9,32.41,32.32H36.8c-.28-.34-.56-.69-.84-1.03Z"/>
        <path class="cls-3" d="m62.24,611.34c1.25,1.24,1.76,2.19.26,3.65-10.69,10.4-21.32,20.85-32.22,31.53v-67.18c11.1,11.12,21.51,21.58,31.96,32Z"/>
        <path class="cls-3" d="m67.89,621.27c1.32-1.33,2.28-2.06,4.01-.31,10.49,10.58,21.1,21.06,32.42,32.33H35.9c11.12-11.12,21.57-21.55,31.99-32.02Z"/>
        <path class="cls-3" d="m102.47,639.88c-7.97-8.04-16.01-16.01-23.99-24.03-1.19-1.2-3.12-2.13-.9-4.33,11.44-11.31,22.77-22.73,34.93-34.9v72.07c-.33.26-.65.52-.98.78-3.02-3.2-5.97-6.46-9.06-9.58Z"/>
        <path class="cls-3" d="m110.03,555.4c-10.5-10.45-20.97-20.92-31.45-31.39-1.39-1.39-3.13-2.42-.79-4.73,11.35-11.19,22.57-22.52,34.77-34.74v72.05c-1.43.6-1.9-.56-2.53-1.19Z"/>
        <path class="cls-3" d="m77.51,427.66c11.43-11.34,22.78-22.77,35.05-35.05v72.05c-1.47.53-1.95-.62-2.58-1.25-10.5-10.45-20.98-20.93-31.42-31.43-1.15-1.15-3.31-2.08-1.05-4.33Z"/>
        <path class="cls-3" d="m38.34,467.05c9.57-9.69,19.26-19.26,28.75-29.03,2.23-2.3,3.52-2.42,5.86-.07,10.26,10.31,20.74,20.41,31.14,30.58-.32.47-.65.93-.97,1.4H37c-.81-1.68.65-2.19,1.34-2.89Z"/>
        <path class="cls-3" d="m103.78,480.08c.82,1.69-.63,2.21-1.33,2.91-9.94,10.02-19.95,19.97-29.88,30-1.63,1.65-2.76,2.41-4.79.34-10.35-10.55-20.84-20.96-31.26-31.43-.31-.31-.44-.8-.98-1.82h68.24Z"/>
        <path class="cls-3" d="m30.27,487.31c8.52,8.55,16.52,16.45,24.36,24.51,3.07,3.16,8.7,5.84,8.34,9.73-.31,3.36-5.37,6.31-8.4,9.37-7.82,7.91-15.69,15.77-24.29,24.42v-68.03Z"/>
        <rect class="cls-3" x="125.54" y="663.41" width="82.1" height="18.28"/>
        <rect class="cls-3" x="29.25" y="663.41" width="82.1" height="18.28"/>
        <rect class="cls-3" x="238.66" y="182.13" width="25.99" height="36.65"/>
        <rect class="cls-3" x="273.33" y="182.13" width="25.99" height="36.65"/>
        <rect class="cls-3" x="238.66" y="313.62" width="25.99" height="36.65"/>
        <rect class="cls-3" x="273.33" y="313.62" width="25.99" height="36.65"/>
        <rect class="cls-3" x="220.4" y="313.62" width="9.94" height="36.65"/>
        <rect class="cls-3" x="220.4" y="182.13" width="9.94" height="36.65"/>
        <polyline class="cls-2" points="293.8 702.89 293.8 696.5 358.17 696.5 358.17 702.89"/>
        <line class="cls-2" x1=".5" y1="694.18" x2="38.68" y2="694.18"/>
        <line class="cls-1" x1="518.41" y1="733.56" x2="469.37" y2="733.56"/>
        <line class="cls-1" x1="2.43" y1="681.69" x2="232.11" y2="681.69"/>
      </g>
    </g>
  </g>
</svg>