<?xml version="1.0" encoding="UTF-8"?>
<svg id="Capa_2" data-name="Capa 2" xmlns="http://www.w3.org/2000/svg" viewBox="0 0 740.63 30.13">
  <defs>
    <style>
      .cls-1 {
        fill: #bababa;
      }
    </style>
  </defs>
  <g id="Capa_1-2" data-name="Capa 1">
    <g>
      <g>
        <rect class="cls-1" x=".5" y=".5" width="369.83" height="7.75" rx="3.87" ry="3.87"/>
        <path d="m736.26,8.75H4.38C1.96,8.75,0,6.79,0,4.37S1.96,0,4.38,0h731.88c2.41,0,4.38,1.96,4.38,4.37s-1.96,4.38-4.38,4.38ZM4.38,1c-1.86,0-3.38,1.51-3.38,3.37s1.51,3.38,3.38,3.38h731.88c1.86,0,3.38-1.51,3.38-3.38s-1.51-3.37-3.38-3.37H4.38Z"/>
      </g>
      <g>
        <rect class="cls-1" x="284.39" y="21.88" width="283.89" height="7.75" rx="3.87" ry="3.87"/>
        <path d="m564.41,30.13H4.38c-2.41,0-4.38-1.96-4.38-4.38s1.96-4.37,4.38-4.37h560.04c2.41,0,4.37,1.96,4.37,4.37s-1.96,4.38-4.37,4.38ZM4.38,22.38c-1.86,0-3.38,1.51-3.38,3.37s1.51,3.38,3.38,3.38h560.04c1.86,0,3.37-1.51,3.37-3.38s-1.51-3.37-3.37-3.37H4.38Z"/>
      </g>
    </g>
  </g>
</svg>