<?xml version="1.0" encoding="UTF-8"?>
<svg id="Capa_2" data-name="Capa 2" xmlns="http://www.w3.org/2000/svg" viewBox="0 0 369.37 422.59">
  <g id="Capa_1-2" data-name="Capa 1">
    <g>
      <g>
        <path d="m268.4,17.02c.16-.03.33-.04.49-.08,3.24-1,5.85-.11,7.82,2.69,6.36,9.06,12.71,18.13,19.08,27.19,2.22,3.16,5.97,4.39,9.42,3.14,5.05-1.83,6.82-7.88,3.61-12.49-6.3-9.02-12.63-18.02-18.95-27.03-1.91-2.73-1.78-5.87.3-8.25,2.55-2.92,7.19-2.9,9.71.05.18.21.35.41.51.64,6.55,9.35,13.2,18.62,19.61,28.06,6.09,8.98,4.06,21.32-4.33,27.86-8.86,6.91-21.07,6-28.6-2.14-.69-.75-1.32-1.56-1.9-2.39-6.29-8.95-12.57-17.9-18.84-26.86-2.2-3.14-2.2-5.56-.01-8.7.05-.08.06-.19.09-.28.67-.47,1.33-.94,2-1.4Z"/>
        <path d="m249.25,53.6c-.02-.16-.03-.33-.08-.49-1.02-3.37.27-6.65,3.17-8.06,3.07-1.49,6.39-.55,8.48,2.42,3.92,5.58,7.85,11.17,11.75,16.76,1.19,1.71,2.76,2.89,4.76,3.45,4.29,1.2,8.5-1.13,9.78-5.39.08-.26.15-.52.21-.71,1.89,1.12,3.69,2.39,5.67,3.29,1.96.89,4.09,1.4,6.25,2.11-.09.24-.21.65-.38,1.05-5.77,14.03-24.04,17.51-34.58,6.59-.23-.24-.5-.44-.75-.65-4.76-6.79-9.52-13.57-14.28-20.36Z"/>
        <path d="m345.43,29.63c2.56,3.65,1.68,8.61-1.98,11.16-3.61,2.52-8.54,1.65-11.09-1.97-2.57-3.65-1.69-8.62,1.97-11.16,3.63-2.52,8.56-1.64,11.09,1.97Z"/>
        <path d="m299.38,95.73c-.34-.54-.5-.82-.68-1.08-1.58-2.25-3.16-4.5-4.73-6.76-.61-.87-.55-1.59.11-2.05.66-.46,1.32-.27,1.95.62,4.47,6.36,8.93,12.73,13.4,19.09.48.68.72,1.35-.04,1.97-.62.5-1.28.26-1.93-.63-.28-.38-.56-.77-.85-1.14-.03-.04-.12-.04-.3-.1-.11,3.35-1.73,5.79-4.56,7.43-2,1.17-4.17,1.59-6.47,1.11-4.69-.98-8.33-6-7.79-10.76.33-2.84,1.81-4.99,4.13-6.6,2.31-1.59,4.82-2.03,7.77-1.1Zm3.54,4.89c-2.47-3.55-6.6-4.4-9.96-2.05-3.37,2.36-4,6.54-1.53,10.06,2.45,3.48,6.57,4.33,9.9,2.04,3.38-2.32,4.04-6.52,1.58-10.05Z"/>
        <path d="m326.64,84.93l-12.78,8.96c1.54,1.77,3.34,2.75,5.57,2.58,3.37-.25,5.77-1.99,7.14-5.1.1-.22.14-.45.23-.67.24-.63.71-.92,1.37-.72.66.2.88.73.73,1.37-.41,1.78-1.4,3.21-2.68,4.48-3.91,3.88-9.81,4.11-13.55.38-2.79-2.77-4.1-6.14-2.78-10.03,1.23-3.63,3.96-5.7,7.71-6.27,3.57-.54,7.63,1.72,9.06,5.02Zm-3.11-.26c-1.79-2.87-6.02-3.41-9.05-1.21-2.87,2.08-3.68,6.29-1.64,8.71l10.69-7.5Z"/>
        <path d="m357.23,60.27c3.41,1.02,6.59,1.97,9.77,2.93.39.12.78.24,1.17.35.82.22,1.36.67,1.15,1.6-.17.74-.86,1.02-1.81.75-2.25-.64-4.5-1.31-6.75-1.96-1.3-.38-2.59-.75-4.02-1.16-.42,1.95-.84,3.79-1.2,5.65-.05.25.14.58.3.82.6.9,1.24,1.78,1.86,2.68.48.69.48,1.37-.24,1.86-.72.49-1.34.23-1.83-.46-4.52-6.45-9.04-12.9-13.57-19.34-.48-.68-.55-1.32.14-1.88.61-.5,1.34-.34,1.9.45,2.89,4.11,5.77,8.22,8.66,12.34.21.3.42.6.79,1.12.16-.56.27-.88.34-1.21.91-4.08,1.81-8.15,2.71-12.23.05-.23.11-.46.16-.7.15-.72.54-1.22,1.33-1.07.79.16.96.76.81,1.49-.45,2.26-.89,4.53-1.35,6.79-.07.36-.2.72-.34,1.19Z"/>
        <path d="m345.46,82.45c-4.23,2.97-8.23,3.22-11.39,1.15-3.48-2.29-4.97-5.57-4.38-9.7.56-3.95,3.47-7.19,7.25-8.05,1.06-.24,2.22-.16,3.32-.1.78.04,1.25.58,1.08,1.41-.16.77-.75,1.02-1.48.87-3.41-.7-6.97,1.91-7.87,5.03-.93,3.26.94,7.25,4.19,8.87,2.97,1.48,6.75.52,8.77-2.34.53-.75.84-1.69,1.13-2.58.24-.74.55-1.29,1.39-1.14.9.16,1.06.82.91,1.63-.45,2.41-1.85,4.18-2.92,4.96Z"/>
      </g>
      <g>
        <path d="m227.36,120.63c5.51-4.64,11.02-9.28,16.55-13.9.79-.66,1.79-1.98,2.74-.89,1.03,1.18-.56,1.87-1.31,2.51-11.19,9.45-22.4,18.89-33.65,28.28-.81.67-1.82,2.34-2.95.86-.83-1.1.74-1.85,1.5-2.49,5.67-4.83,11.38-9.61,17.08-14.4,0,0,.01.02.02.03Z"/>
        <path d="m218.62,103.17c-4.86,4.09-9.72,8.19-14.6,12.25-.69.57-1.58,1.73-2.46.79-.92-.99.32-1.73,1.01-2.32,9.71-8.2,19.44-16.37,29.18-24.53.7-.59,1.67-1.72,2.47-.75,1.01,1.23-.56,1.89-1.3,2.52-4.73,4.05-9.52,8.04-14.29,12.05Z"/>
        <path d="m250.15,118.91c-1.77,1.49-3.53,2.98-5.31,4.45-.5.42-1.17.6-1.61.05-.43-.54-.16-1.17.34-1.6,3.43-2.91,6.87-5.81,10.33-8.69.46-.39,1.08-.74,1.63-.23.78.71.18,1.34-.35,1.8-1.64,1.44-3.34,2.83-5.01,4.24,0,0-.01-.02-.02-.02Z"/>
        <path d="m235.59,104.08c-1.67,1.41-3.34,2.83-5.03,4.21-.6.49-1.31.76-1.87-.02-.45-.63,0-1.19.46-1.57,3.43-2.9,6.88-5.79,10.34-8.65.45-.37,1.11-.68,1.6-.06.6.76.07,1.37-.49,1.85-1.66,1.43-3.34,2.82-5.01,4.24Z"/>
        <path d="m228.59,80.35c-1.58,1.33-3.16,2.66-4.75,3.99-.5.42-1.16.69-1.65.23-.7-.65-.23-1.34.34-1.82,3.43-2.91,6.88-5.8,10.34-8.68.49-.4,1.17-.6,1.62-.04.44.55.15,1.18-.34,1.6-1.85,1.58-3.72,3.14-5.58,4.7,0,0,0,0,.01.01Z"/>
        <path d="m215.51,91.42c-.99.53-1.91,2.31-2.99,1.2-1.19-1.23.62-2,1.41-2.67.83-.7,1.9-2.32,2.94-1.24,1.26,1.29-.78,1.83-1.37,2.72Z"/>
      </g>
      <g>
        <polygon points="53.49 255.64 59.36 256.97 69.66 243.67 90.66 222.02 135.73 177.41 152.1 162.8 167.91 155.57 170.1 153.15 167.23 150.93 158.1 146.89 152.49 146.89 144.27 147.49 136.83 150.28 129.18 156.28 124.83 159.54 99.53 190.32 89.62 205.19 71.45 229.97 58.83 248.93 53.49 255.64"/>
        <path d="m137.96,203.05c-3.27-.08-6.21,1.85-7.31,4.75-1.45,3.82,1.11,7.14,1.24,7.3,3.68-.5,6.58-3.01,7.27-6.19.63-2.9-.82-5.28-1.2-5.86Z"/>
        <path d="m189.15,225.55c-1.4,2.26-1.6,5.64.06,7.33.27.28.71.72,1.34.76,1.87.12,3.4-3.51,3.94-5.42.35-1.27.69-2.55.05-3.84-.48-.95-1.27-1.48-1.74-1.74-.87.33-2.54,1.14-3.64,2.91Z"/>
        <path d="m209.87,201.98c-.4-15.49-5.32-29.37-13.36-42.29-1.35-2.17-3.81-3.94-6.14-5.18-4.26-2.26-8.43-3.29-12.47-3.38l.02-.03s-.08,0-.11,0c-1.66-3.54-3.55-7.01-5.66-10.4-1.35-2.17-3.81-3.94-6.14-5.18-12.87-6.83-25.06-2.63-34.6,5.65-15.06,13.09-28.72,27.82-42.53,42.29l-9.38,14.31-24.4,50.35c-.69,2.36-1.48,4.67-2.35,6.93l-.36.88c-3.78,9.43-9.21,17.9-16.67,25.14-16.53,16.03-29.14,34.31-34.74,57.08-1.76,7.14-1.99,12.14,6.27,15.22,4.8,1.79,8.72,5.86,13.16,8.71,1.34.86,2.68,1.76,4.01,2.65-.04-.37-.06-.75-.07-1.14-7.13-4.51-13.71-10.2-20.5-15.31-1.18-.89-1.63-4.1-1.06-5.78,6.52-19.23,12.17-38.73,28.44-53.03,10.01-8.8,18.5-19.25,22.66-32.44l.22-.3c.63.35,1.88.59,4.35.85,4.99.51,14.35,6.72,14.45,6.78l.97.65,6.35,1.94c16.5,5.95,33.64,10.74,50.08,16.86,5.14,1.92,7.7.97,7.78-5.54-12.49-4.49-25.05-9.44-37.89-13.45-6.29-1.96-7.39-5.27-6.35-11.03,1.48-8.12,2.51-16.32,3.58-24.51.62-4.74-.89-7.48-6.22-5.79,1.63,1.76,4.54,3.54,4.48,5.19-.08,2.16-2.33,4.4-4,6.3-4.49,5.1-12.12,7.61-13.43,15.7l-5.23,11.38c-2.13-1.35-7.29-4.46-11.58-5.84,2.42-5.98,25.6-29.8,46.73-50.45l6.29-5.97c9.84-8.96,18.53-19.22,28.6-27.89,7.47-6.43,15.9-12.23,24.81-16.32,2.23-1.02,5.04-1.42,7.91-1.35,0,0,0,0,0,0,.02,0,.04,0,.06,0,0,0,.01,0,.02,0h0c1.13-.11,2.23-.14,3.28-.07,1.31.09,2.54.31,3.67.71,6.03,2.15,12.9,7.48,15.3,13.13,4.56,10.7,7.32,22.52,8.74,34.12,1.92,15.65,1.35,31.58,2.84,47.3,1.24,13.12-1.76,25.23-5.89,37.34-2.01,5.88-3.65,11.9-5.89,17.69-.68,1.75-2.82,2.92-5.01,3.63,3.65-8.49,5.48-16.25,2.31-25.15-1.14-3.19.88-7.52,1.46-11.32.88.2,1.76.4,2.64.61-.22,3.07-.44,6.14-.66,9.21,1.26.23,2.53.47,3.79.7,1.21-5.58,2.74-11.13,3.3-16.78.09-.93-5.9-3.53-6.09-3.26-3.08,4.4-7.23,8.89-8.06,13.87-1.5,9.09-.97,18.52-1.32,29.01-7.1-2.06-12.64-3.66-18.99-5.5,3.33-2.92,5.97-5.22,8.61-7.53-.44-.53-.89-1.05-1.33-1.58-2.71,2.1-5.43,4.2-8.66,6.7-1.15.89-2.37,1.83-3.67,2.84.75.27,1.46.52,2.17.77,7.76,2.73,13.74,4.56,19.29,7.21,2,.96,4.51,5.31,3.84,6.73-6.26,13.3-5.13,27.38-3.11,40.83,3.5,23.33-6.12,43.12-13.66,63.64-22.59-3.17-45.52-2.28-66.9-11.55-17.2-7.46-35.26-13.03-52.17-21.05-9.96-4.72-18.52-12.45-27.45-19.18-1.28-.85-2.55-1.71-3.83-2.57.36,3.26,2.25,5.79,7.19,7.64,4.8,1.79,8.72,5.86,13.16,8.71,6.49,4.17,12.73,8.99,19.72,12.07,14.9,6.56,29.94,13.05,45.45,17.93,13.01,4.09,26.71,6.02,40.18,8.56,6.01,1.13,12.46.53,18.21,2.31,6.36,1.97,8.86-.58,10.95-5.68,8.53-20.81,15.17-41.7,11.49-64.94-1.88-11.84-1.75-24.3,3.73-35.75,2.58-5.39,5.9-10.47,7.99-16.03,2.37-6.31,4.2-12.92,5.42-19.55,1.87-10.16,4.14-20.44,4.22-30.68.12-15.77-1.84-31.54-2.26-47.33Zm-117.39,34.52c.52.28,1.05.57,1.57.85-.89,4.46-1.71,8.94-2.68,13.38-2.11,9.69-.43,12.79,8.64,16.02,12.09,4.31,24.16,8.68,35.73,14.57-20.21-6.31-40.43-12.61-60.64-18.92l6.85-14.91c3.57-3.72,7.06-7.36,10.54-11Zm48.85-66.38c-7.45,7.77-15.52,14.97-23.03,22.68-12.66,12.12-55.56,53.61-59.06,62.85-.19-.03-.38-.06-.55-.08-2.15-.22-3.02-.42-3.35-.52l4.1-5.53,33.19-47.34c5.6-9.7,33.36-42.74,35.01-44.71,21.69-17.08,36.1-7.77,40.23-4.28-9.99,3.6-18.94,9-26.54,16.93Zm29.02-17.78c-2.81-2.63-19.42-16.23-44.23,3.39l-.17.16c-1.2,1.43-29.47,35.01-35.32,45.14-4.39,7.59-24.08,34.99-33.44,47.91l.06-.16,32.19-59.49,1.06-1.95.27-.5c8.92-10.12,16.82-21.54,27.22-29.79l5.61-5.2c5.11-9.25,24.56-19.66,34.88-15.97,6.03,2.15,12.9,7.48,15.3,13.13.3.7.57,1.41.85,2.11-.34.05-.67.12-.99.21-1.11.31-2.2.66-3.29,1.01Z"/>
        <path d="m97.85,390.51c.51-.87,1.16-1.69,1.5-2.62,9.32-25.99,18.69-51.96,27.79-78.02,1.1-3.14.75-6.79,1.14-10.96-11.13,30.94-21.89,60.85-32.65,90.76.74.28,1.48.55,2.22.83Z"/>
        <path d="m108.45,278.54l-1.1-.38c-5.97,16.61-11.95,33.22-17.92,49.83-5.99,16.66-11.98,33.32-17.98,49.97.36.15.72.3,1.07.45,11.98-33.29,23.95-66.58,35.93-99.87Z"/>
        <path d="m102.3,276.49c-.31-.11-.61-.22-.92-.33-7.9,21.96-15.8,43.92-23.7,65.88.31.11.61.21.92.32,7.9-21.96,15.8-43.91,23.7-65.87Z"/>
        <path d="m97.04,355.46c.97-1.71,1.94-3.41,2.91-5.12.58.27,1.16.54,1.74.81-4.05,11.25-8.09,22.5-12.14,33.75.75.18,1.51.37,2.26.55,10.26-28.52,20.52-57.05,30.78-85.58-.56-.21-1.13-.42-1.69-.63-8.41,18.51-16.81,37.03-25.22,55.54.45.22.9.44,1.36.66Z"/>
        <path d="m192.73,196c-9.1-3.27-18.19-6.54-27.29-9.82-.32.7-.64,1.4-.97,2.1,8.74,4.15,17.49,8.29,26.23,12.44.68-1.58,1.35-3.15,2.03-4.73Z"/>
        <path d="m18.27,354.64c10.61-33.47,18.95-67.83,38.07-97.66-12.62,32.37-25.34,65.02-38.07,97.66Z"/>
        <path d="m9.23,349.24c6.46-17.97,12.93-35.93,19.39-53.9.48.17.95.34,1.43.51-6.46,17.96-12.92,35.92-19.38,53.89-.48-.17-.95-.33-1.43-.5Z"/>
      </g>
    </g>
  </g>
</svg>