<?xml version="1.0" encoding="UTF-8"?>
<svg id="Capa_2" data-name="Capa 2" xmlns="http://www.w3.org/2000/svg" viewBox="0 0 99.9 1221.05">
  <defs>
    <style>
      .cls-1 {
        fill: #cccdff;
      }

      .cls-2 {
        stroke: #000;
        stroke-miterlimit: 10;
        stroke-width: 2px;
      }

      .cls-2, .cls-3 {
        fill: none;
      }
    </style>
  </defs>
  <g id="Capa_1-2" data-name="Capa 1">
    <g>
      <g>
        <path class="cls-1" d="m54.92,882.76l.24.48c-.23-.47-.46-.93-.68-1.4l.44.92Z"/>
        <path class="cls-1" d="m66.99,906.67l-.2-.39s-.05-.09-.07-.13l.26.52Z"/>
        <path class="cls-1" d="m51.06,874.74l.31.64c-.09-.18-.17-.36-.26-.54l-.05-.1Z"/>
        <path class="cls-1" d="m51.37,875.38l3.11,6.46c.23.47.46.93.68,1.4l11.56,22.91s.05.09.07.13l-15.69-31.44c.09.18.17.36.26.54Z"/>
      </g>
      <g>
        <path d="m65.6,843.85c-.19,3.41-.37,6.82-.56,10.23-.68-.04-1.36-.08-2.03-.12.22-3.41.44-6.81.66-10.22.64.04,1.29.08,1.93.11Z"/>
        <g>
          <path d="m47.62,829.93v41.32l1.47-.69v-40.61c-.49,0-.98-.01-1.47-.02Z"/>
          <path d="m65.14,861.16c-.6,0-1.19,0-1.79,0v37.09l1.87,3.67c0-13.59-.03-27.18-.08-40.77Z"/>
        </g>
        <path d="m57.42,885.38c.04-8.75.07-17.5.1-26.24.03-8.13-.45-16.26-.65-24.39-.03-1.34.18-2.68,1.24-3.99.26,19.21.49,38.42.66,57.62"/>
        <path d="m51.91,875.46c.09-13.87.33-27.74.43-41.61.02-2.44-.21-4.89-.33-7.33.38-.07.75-.13,1.13-.2.37,2.22,1.07,4.43,1.06,6.65-.06,15.14-.16,30.28-.26,45.42"/>
      </g>
      <path d="m14.12,945.59c.16-6.29.34-12.58.52-18.86.03-.98.71-2.51,1.47-2.82,4.2-1.69,4.09-5.1,4.04-8.71-.07-5.99.41-12.02-.1-17.97-.22-2.57-2.4-4.95-3.59-7.46-.87-1.84-2.16-3.74-2.24-5.65-.27-6.99-.08-13.99-.13-20.99-.22-29.7-.63-59.41-.67-89.11-.1-67.14-.02-134.29-.03-201.43,0-14.48-.15-28.96.02-43.44.12-10.47.65-20.94,1.03-31.41.03-.81.02-2.07.49-2.35,7.4-4.49,4.65-11.96,4.75-18.1.08-5.25,1.97-6.22,6.3-6,3.13.16,6.28.03,10.14.03v-17.18h32.62c0,4.44-.04,8.47.01,12.5.05,4.29,2.62,5.89,6.53,5.61,4.1-.29,5.7.68,4.74,5.39-.73,3.59.49,7.54.48,11.33-.07,25.64-.37,51.29-.35,76.93.04,45.65.33,91.29.4,136.94.07,47.32.02,94.64.01,141.95,0,29.01,0,58.01,0,87.02l2.17,3.83c-.03-30.57,0-61.14-.01-91.7,0-28.8.03-57.61,0-86.41-.07-65.94-.17-131.88-.24-197.81-.03-30.26,0-60.53,0-90.78-2.38-1.32-4.87-2.71-7.59-4.22.89-2.81.5-6.49,1.97-9.31l-3.98-2.67c-2.58-.82-4.48-1.93-6.41-1.96-9.69-.17-19.39-.11-29.08.04-1.03.02-2.15,1.01-3.04,1.77-2.95,2.49-5.81,5.07-8.76,7.67,2.02,2.64,2.25,6.62.06,8.01-1.1-4.13-1.96-8.41-3.5-12.42-.38-1-2.97-1.44-4.6-1.57-1.53-.12-3.12.51-4.86.85v7.14c2.71,2.74,4.56,4.6,6.34,6.4-.97,1.38-2.06,2.25-2.2,3.25-.72,5.26-2.26,10.72-1.46,15.78.88,5.51-3.25,4.16-5.21,6.42,0,0-2.56,1.32-5.02,2.59.51,12.02,1.15,24.04,1.46,36.07.35,13.81.17,27.63.16,41.45-.04,43.11-.06,86.22-.2,129.33-.07,20.11-.47,40.22-.56,60.33-.06,12.46.29,24.92.27,37.39-.03,17.94-.12,35.89-.4,53.83-.22,14.12-.7,28.23-1.21,42.34-.25,6.97-1.19,13.93-1.13,20.89.03,3.88,2.17,7.77,2.12,11.63-.12,8.1-.41,16.2-.7,24.29,5.44-4.56,9.17-8.64,9.17-8.64Z"/>
      <g>
        <path d="m68.22,537.25c-8.61,0-16.56-.26-24.48.1-4.7.21-6.65-1.22-6.23-6.02.3-3.46.26-6.96.08-10.43-.16-3.03,1.11-4.26,4.02-4.25,7.66.03,15.31.05,22.97-.03,2.44-.02,3.72.73,3.67,3.41-.1,5.64-.03,11.29-.03,17.23Zm-2.7-2.96v-5.47c-3.7-.2-7.1-.38-10.5-.56.76-6.73,6.35-4.19,9.89-5.66h-14.31c2.2.86,3.38,1.32,5.78,2.25-4.37.92-7.49,1.5-10.56,2.26-2.14.53-4.22,1.34-6.32,2.02,2.24.74,4.45,1.95,6.74,2.11,4.73.33,9.51.1,14.27.1.01.61.02,1.21.03,1.82h-19.83c0,.38.01.76.02,1.13h24.79Zm-25.09-8.76c3.24-1.12,5.63-1.95,8.02-2.78-.44-.93-.72-2.51-1.35-2.66-2.09-.52-4.31-.53-6.67-.76v6.21Z"/>
        <path d="m57.58,668.72v-127.82c.32,0,.64-.01.96-.02v127.82c-.32,0-.64,0-.96.01Z"/>
        <path d="m49.86,541.18v128.22c-.36-1.07-1.24-2.52-1.29-3.99-.5-14.61-1.03-29.21-1.24-43.83-.27-18.46-.26-36.92-.35-55.39-.04-8.35,0-16.71,0-25.06.96.01,1.92.03,2.88.04Z"/>
        <path d="m53.89,541.14v127.52c-.44,0-.88,0-1.33,0v-127.55c.44,0,.88.02,1.33.03Z"/>
        <path d="m64.21,655.06v-113.43c.45,0,.91,0,1.36,0v113.43c-.45,0-.91,0-1.36-.01Z"/>
        <path d="m40.6,476.91c.13,7.52,2.82,8.65,9.33,9.71,4.07.66,8.21,1.07,12.2,2.09,2.01.51,3.74,2.14,5.6,3.26-.25.51-.51,1.02-.76,1.53-1.24-.38-2.71-.46-3.68-1.19-3.78-2.84-7.66-2.14-11.81-1.12-1.6.39-3.95.09-5.19-.89-3.8-2.98-8.39-5.75-7.2-11.85.09-.47.33-.95.62-1.32.15-.19.59-.15.9-.22Z"/>
        <path d="m64.79,500.07c-2.15,1.25-4.3,2.49-6.27,3.64-1.91-1.45.36-6.51-4.57-3.65-.08-1.55-.16-3.12-.26-5.17,4.32,1.06,10.91-3.98,10.97,5.32,0,0,.13-.14.13-.14Z"/>
        <path d="m57.12,485.87v-28.29c.41,0,.82,0,1.23-.01v28.33c-.41,0-.82-.02-1.23-.03Z"/>
        <path d="m52.79,483.84v-25.78c.39,0,.78,0,1.17-.01v25.78c-.39,0-.78,0-1.17.01Z"/>
        <path d="m32.43,483.92c-2.47.37-4.94.73-7.79,1.16-.22,1.34-.51,3.16-.89,5.44-3.22-4.88-2.28-7.35,2.43-7.78,2.01-.18,4.03-.26,6.04-.39.07.52.14,1.04.21,1.57Z"/>
        <path d="m22.52,474.04c4.3-.39,8.6-.79,12.85-1.18-1.91,3.21-7.08,3.98-12.85,1.18Z"/>
        <path d="m52.54,495.6c-.53,2.15-1.06,4.31-1.59,6.46-.7-.26-2.01-.56-1.99-.76.16-2.12.53-4.22.84-6.33.91.21,1.83.42,2.74.63Z"/>
        <path d="m64.66,500.21c.88,3.59,1.76,7.19,2.64,10.78-.84.1-1.68.21-2.52.31,0-3.74,0-7.48,0-11.23,0,0-.12.14-.12.14Z"/>
      </g>
      <path d="m27.86,395.94c0-8.61.26-16.56-.1-24.48-.22-4.83,1.31-6.76,6.45-6.19,3.1.34,6.23.43,9.34.09,4-.44,5.27,1.21,4.84,5.34-.69,6.47-.8,13-.05,19.46.44,3.83.12,5.86-3.25,5.8-5.64-.1-11.29-.03-17.23-.03Zm2.96-2.7h5.47c.2-3.7.38-7.1.56-10.5,5.41.61,4.83,4.34,5.16,7.61.03.32.51.29.51-.03v-9.15c0-.59-.82-.75-1.04-.19-.18.46-.36.93-.56,1.44s-.92.43-1.03-.09c-.72-3.47-1.23-6.15-1.89-8.79l-.02-.06c-.56-2.24-3.86-2.04-4.09.26,0,.07-.01.15-.02.22-.33,4.73-.1,9.51-.1,14.27l-1.82.03v-19.83c-.38,0-.76.01-1.13.02v24.79Zm9.29-23.56c.65,1.87,1.2,3.45,1.73,4.97.29.83,1.2,1.27,2.03.97.59-.21,1.08-.45,1.17-.79.41-1.64.51-3.37.64-5.17.06-.81-.58-1.5-1.39-1.5h-3.09c-.79,0-1.33.78-1.08,1.52Z"/>
      <g>
        <path class="cls-2" d="m47.12,241.95h0c-.59.59-1.2,1.06-1.92,1.52-1.08.63-2.29,1.12-3.59,1.33-1.33.21-2.64.11-3.86-.15-3.79-.92-6.83-4.01-7.48-8.11l-1.58-9.96c-.18-1.15.31-2.33,1.27-3.01h.04c1.85-1.25,4.38-.17,4.73,2.05l1.56,9.85c.33,2.07,2.32,3.62,4.39,3.25,1.04-.16,1.89-.75,2.49-1.57.81,2,2.21,3.64,3.95,4.8h0Z"/>
        <path class="cls-2" d="m54.75,216.04h0l2.47,15.55c.32,2.04-1.03,4.07-3.06,4.43-2.11.37-4.08-1.06-4.41-3.14l-2.5-15.73c-.35-2.22-2.88-3.3-4.73-2.02h0c-1,.61-1.5,1.79-1.31,2.98l2.5,15.73c.65,4.07,3.69,7.2,7.48,8.11.82.17,1.71.26,2.62.23.42,0,.83-.05,1.23-.12,1.33-.21,2.52-.66,3.63-1.3,3.32-2.04,5.25-5.95,4.6-10.02l-2.48-15.66c-.19-1.18-1.03-2.15-2.18-2.46h0c-2.15-.61-4.22,1.2-3.86,3.42h0Z"/>
        <path class="cls-2" d="m66.88,236.97h0c-.33-2.07,1.07-4,3.15-4.33,2.07-.33,4.01,1.07,4.33,3.15.32,2.04-1.08,3.97-3.15,4.29-2.07.33-4.01-1.07-4.33-3.11h0Z"/>
      </g>
      <path class="cls-3" d="m83.53,241.69c-.11-28.33-.02-56.65-.02-85.38-14.57-6.73-29.62-7.02-44.92-5.32-.08,0-.15.11-.23.21-6.49.95-13,1.77-19.46,2.92-3.43.61-4.6,2.99-4.53,6.57.2,11.32.03,22.65.07,33.98.08,24.63.22,49.27.27,73.9.02,11.7-.12,23.41-.16,35.11-.03,7.07,0,14.14,0,21.34,24.12-4.2,47.49-4.2,70.99,1.1-5.37-27.91-1.89-56.21-2-84.43Z"/>
      <g>
        <path d="m75.96,291.01c.41,0,.82,0,1.23-.01v28.33c-.41,0-.82-.02-1.23-.03v-28.29Z"/>
        <path d="m71.63,291.49c.39,0,.78,0,1.17-.01v25.78c-.39,0-.78,0-1.17.01v-25.78Z"/>
      </g>
      <path class="cls-3" d="m14.44,194.66c.08,24.63.22,49.27.27,73.9.02,11.7-.12,23.41-.16,35.11-.03,7.07,0,14.14,0,21.34,24.12-4.2,47.49-4.2,70.99,1.1-5.37-27.91-1.89-56.21-2-84.43-.11-28.33-.02-56.65-.02-85.38-14.57-6.73-29.62-7.02-44.92-5.32-.08,0-.15.11-.23.21-6.49.95-13,1.77-19.46,2.92-3.43.61-4.6,2.99-4.53,6.57.2,11.32.03,22.65.07,33.98Z"/>
      <path d="m13.27,475.76c.61-3.96,1.17-7.52.78-11.72-.96-10.37-.41-20.88-.31-31.33.01-1.21,1.04-2.44,1.68-3.61.92-1.71,2.76-3.39,2.76-5.08-.02-29.19-.25-58.38-.47-87.57v-8.71s.06,0,.09-.01c6.46-1.1,12.98-2.26,19.51-2.53,12.08-.49,24.17.08,36.15,2.03.28.05.51.38,1.75,1.35v112.27l.17,3.05c-.67.3-1.43.7-2.3,1.13,2.59,1.15,4.09,1.82,5.92,2.63-1.52,1.84-2.75,3.34-3.2,3.88l3.98,2.67c.9-1.74,2.5-3.16,5.54-3.85l-.47-9.9c.5-3.88,1.25-6.98,1.26-10.09.09-25.31-.05-50.63.12-75.94.03-4.06-.36-7.17-4.72-7.65v-17.28c2.35-.22,4.29-.41,7.32-.7-.97-6.48-2.43-12.3-2.6-18.15-.38-13.12-.16-26.26-.12-39.39.1-36.48.17-77.77.45-114.25,0-.4-2.7-.48-7.06.44-2.57.54-5.72,2.37-9.23,2.18-6.53-.35-14.79.23-22.57.07-9.02-.19-18.9-1.97-25.7-1.76-7.12.22-10.44-1.18-10.45-.33-.29,52.61-.01,112.36.06,164.97,0,.99.05,1.81.16,2.5v9.98c-.17.72-.24,1.56-.23,2.53.11,28.65.06,57.31.04,85.96,0,1.48.3,3.6-.51,4.31-3.4,3-2.16,6.67-2.18,10.24-.05,9.47-.15,18.93-.4,28.4-.15,5.45-1.05,10.9-.9,16.33.12,4.22.28,8.44.46,12.65l5.02-2.59c0-6.22-.62-11.8.2-17.15ZM83.51,160.19c0,28.73-.08,53.17.02,81.5.1,28.22-3.37,56.53,2,84.43-23.5-5.3-46.87-5.3-70.99-1.1,0-7.2-.02-14.27,0-21.34.04-11.7.19-23.41.16-35.11-.05-24.63-.2-49.27-.27-73.9-.04-11.33-.04-24.42-.24-35.74,0-.38,2.91,2,7.48,1.24,2.99-.5,6.81,1.59,10.96.91,6.91-1.13,15.49,2.29,23.28,1.5,7.68-.78,15.2-.39,20.74-2.02,2.9-.85,4.98-1.22,6.85-.36Z"/>
      <path d="m9.47,496.73c-.63,0-1.21-.4-1.42-1.03-.26-.79.17-1.63.95-1.9l8.15-2.7,2.54-6.71.9-13.94c.04-.62.45-1.15,1.04-1.33l8.11-2.57,5.46-8.18v-4.63c0-.62.38-1.18.96-1.4l8.48-3.26c.2-.07.41-.11.62-.1l27.78,1.44c.2.01.39.06.57.15l2.94,1.41,2.02-.05c.82-.07,1.52.63,1.54,1.46.02.83-.63,1.52-1.46,1.54l-2.38.06c-.25.02-.47-.04-.69-.15l-2.99-1.43-27.16-1.4-7.22,2.78v4.06c0,.3-.09.59-.25.83l-6,9c-.19.28-.47.5-.79.6l-7.63,2.42-.85,13.14c0,.15-.04.29-.09.43l-2.87,7.59c-.16.42-.5.75-.93.89l-8.82,2.92c-.16.05-.32.08-.47.08Z"/>
      <g>
        <path d="m13.95,1058.05c.58,1.36,1.71,2.75,1.64,4.08-.47,9.2-1.15,18.39-1.89,27.57-.05.68-1.12,1.27-1.72,1.9-.49-.75-1.39-1.49-1.4-2.25-.06-4.15-.06-8.31.22-12.45.42-6.07,1.09-12.12,1.65-18.18.5-.23,1-.46,1.49-.68Z"/>
        <path d="m10.28,1173.05v-8.68c.68.04,1.35.07,2.03.11-.23,2.89-.46,5.78-.68,8.67-.45-.03-.9-.07-1.34-.1Z"/>
        <path class="cls-3" d="m82.05,1172.85c.03-.16,0-.33,0-.5.25-11.94.51-23.88.73-35.81.06-3.3,0-6.6,0-9.9-.55-.1-1.11-.19-1.66-.29-2.75,5.91-2.21,13.89-10.66,17.6,0-2.74-.29-4.71.07-6.56.5-2.57,1.95-5,2.17-7.57.47-5.43,1.45-10.18,6.74-13.31,1.51-.89,2.5-3.86,2.51-5.88.12-23.3.32-46.62-.23-69.91-.18-7.34-2.55-14.62-3.93-21.92-.21-1.13-1.08-2.6-.65-3.3,3.27-5.32-.72-6.89-4.68-8.99-.34,1.52-.81,2.91-.95,4.33-1.69,17.53-3.36,35.07-4.99,52.61-2.38,25.63-4.72,51.27-7.07,76.9-.46,5.01-4.15,5.81-8.12,6.29-3.93.47-6.83-.32-7.32-5.04-.77-7.27-1.9-14.49-2.63-21.76-2.57-25.47-4.9-50.96-7.61-76.42-1.18-11.06-2.86-22.08-4.82-33.03-.45-2.51-2.99-4.66-4.57-6.97-2.18,2.25-5.28,4.14-6.31,6.83-1.56,4.08-2.15,8.7-2.32,13.13-.35,9.3-.1,18.63-.27,27.94-.03,1.49-.97,2.97-1.49,4.45-.69-.08-1.38-.16-2.07-.25-5.68-17.75-2.38-36.14-2.48-55.67-1.78,1.88-3.45,2.81-3.63,3.97-.65,4.24-1.1,8.56-1.06,12.84.07,8.61.64,17.22.76,25.84.06,4.13-.66,8.27-.63,12.4.12,15.62.51,31.24.59,46.86.1,18.97-.06,37.94,0,56.91.02,6.4.38,12.79.62,20.51,1.71-2.28,2.43-3.24,3.15-4.2.48.47.97.93,1.45,1.4-2.25,2.06-4.5,4.11-7.1,6.48,8.18,5.12,16.25,10.17,24.19,15.14.59-.28,1.71-1.21,2.89-1.3,2.57-.19,5.95,1.11,7.6-.11,3.87-2.85,4.92-1.23,5.62,2.84,2-1.57,4.25-2.5,5.08-4.15,1.88-3.71,3.96-2.48,5.8-.57,2.63,2.73,4.58,2.54,6.21-.77,1.92.63,3.59,1.19,5.51,1.82,1.49-2.2,3.89-4.14,4.04-6.25.41-5.76-.15-11.58-.28-17.37-.14-6.48-.41-12.98-.19-19.45.04-1.25,2.08-2.42,3.19-3.63.77,1.19,2.3,2.46,2.17,3.54-.42,3.76,1.88,7.51-.58,11.41-.88,1.39.49,4.21.87,6.6-.4,2.42-.88,5.31-1.39,8.43,3.51.25,6.36,1.32,8.24.4,4.16-2.04-.98-4.29-.51-6.62Z"/>
        <path class="cls-3" d="m27.91,1210.18c-.36,1.46-.73,2.91-1.19,4.77-1.52-2.38-2.72-4.26-4.49-7.02.07-1.54,2.23-5.02-2.64-5.91-.73,1-1.43,1.96-2.99,4.08.23-4.87.39-8.36.59-12.64-3.81,2.01-7.9,13.49-5.88,15.56,2.74,2.82,5.98,5.48,9.51,7.12,2.16,1,5.27-.05,8.17-.18-.19-2.56-.31-4.14-.43-5.73-.21-.02-.43-.03-.64-.05Z"/>
        <path class="cls-3" d="m77.41,1006.23c.96,1.57,2.04,3.07,2.97,4.66,1.07,1.81,2.03,3.69,3.04,5.54.56-.22,1.11-.43,1.67-.65-.76-3.16-1.39-6.35-2.33-9.45-.42-1.39-1.16-3.29-2.25-3.71-1.37-.54-3.24.19-4.89.38.59,1.08,1.15,2.19,1.79,3.23Z"/>
        <path class="cls-3" d="m27.91,1210.18c-.36,1.46-.73,2.91-1.19,4.77-1.52-2.38-2.72-4.26-4.49-7.02.07-1.54,2.23-5.02-2.64-5.91-.73,1-1.43,1.96-2.99,4.08.23-4.87.39-8.36.59-12.64-3.81,2.01-7.9,13.49-5.88,15.56,2.74,2.82,5.98,5.48,9.51,7.12,2.16,1,5.27-.05,8.17-.18-.19-2.56-.31-4.14-.43-5.73-.21-.02-.43-.03-.64-.05Z"/>
        <path class="cls-3" d="m82.05,1172.85c.03-.16,0-.33,0-.5.25-11.94.51-23.88.73-35.81.06-3.3,0-6.6,0-9.9-.55-.1-1.11-.19-1.66-.29-2.75,5.91-2.21,13.89-10.66,17.6,0-2.74-.29-4.71.07-6.56.5-2.57,1.95-5,2.17-7.57.47-5.43,1.45-10.18,6.74-13.31,1.51-.89,2.5-3.86,2.51-5.88.12-23.3.32-46.62-.23-69.91-.18-7.34-2.55-14.62-3.93-21.92-.21-1.13-1.08-2.6-.65-3.3,3.27-5.32-.72-6.89-4.68-8.99-.34,1.52-.81,2.91-.95,4.33-1.69,17.53-3.36,35.07-4.99,52.61-2.38,25.63-4.72,51.27-7.07,76.9-.46,5.01-4.15,5.81-8.12,6.29-3.93.47-6.83-.32-7.32-5.04-.77-7.27-1.9-14.49-2.63-21.76-2.57-25.47-4.9-50.96-7.61-76.42-1.18-11.06-2.86-22.08-4.82-33.03-.45-2.51-2.99-4.66-4.57-6.97-2.18,2.25-5.28,4.14-6.31,6.83-1.56,4.08-2.15,8.7-2.32,13.13-.35,9.3-.1,18.63-.27,27.94-.03,1.49-.97,2.97-1.49,4.45-.69-.08-1.38-.16-2.07-.25-5.68-17.75-2.38-36.14-2.48-55.67-1.78,1.88-3.45,2.81-3.63,3.97-.65,4.24-1.1,8.56-1.06,12.84.07,8.61.64,17.22.76,25.84.06,4.13-.66,8.27-.63,12.4.12,15.62.51,31.24.59,46.86.1,18.97-.06,37.94,0,56.91.02,6.4.38,12.79.62,20.51,1.71-2.28,2.43-3.24,3.15-4.2.48.47.97.93,1.45,1.4-2.25,2.06-4.5,4.11-7.1,6.48,8.18,5.12,16.25,10.17,24.19,15.14.59-.28,1.71-1.21,2.89-1.3,2.57-.19,5.95,1.11,7.6-.11,3.87-2.85,4.92-1.23,5.62,2.84,2-1.57,4.25-2.5,5.08-4.15,1.88-3.71,3.96-2.48,5.8-.57,2.63,2.73,4.58,2.54,6.21-.77,1.92.63,3.59,1.19,5.51,1.82,1.49-2.2,3.89-4.14,4.04-6.25.41-5.76-.15-11.58-.28-17.37-.14-6.48-.41-12.98-.19-19.45.04-1.25,2.08-2.42,3.19-3.63.77,1.19,2.3,2.46,2.17,3.54-.42,3.76,1.88,7.51-.58,11.41-.88,1.39.49,4.21.87,6.6-.4,2.42-.88,5.31-1.39,8.43,3.51.25,6.36,1.32,8.24.4,4.16-2.04-.98-4.29-.51-6.62Z"/>
        <path class="cls-3" d="m80.51,1002.62c-1.37-.54-3.24.19-4.89.38.59,1.08,1.15,2.19,1.79,3.23.96,1.57,2.04,3.07,2.97,4.66,1.07,1.81,2.03,3.69,3.04,5.54.56-.22,1.11-.43,1.67-.65-.76-3.16-1.39-6.35-2.33-9.45-.42-1.39-1.16-3.29-2.25-3.71Z"/>
        <path class="cls-3" d="m27.9,1210.18c-.36,1.46-.73,2.91-1.19,4.77-1.52-2.38-2.72-4.26-4.49-7.02.07-1.54,2.23-5.02-2.64-5.91-.73,1-1.43,1.96-2.99,4.08.23-4.87.39-8.36.59-12.64-3.81,2.01-7.9,13.49-5.88,15.56,2.74,2.82,5.98,5.48,9.51,7.12,2.16,1,5.27-.05,8.17-.18-.19-2.56-.31-4.14-.44-5.73-.21-.02-.43-.03-.64-.05Z"/>
        <path class="cls-3" d="m52.49,905.4h-4.06c-1.92,0-3.58,1.37-3.95,3.25l-18.03,91.94c1.84.95,3.64,3.13,4.69,4.99,1.41,2.51,1.84,5.69,2.19,8.64,1.35,11.36,2.47,22.75,3.72,34.13,2.53,22.95,5.12,45.89,7.62,68.85.83,7.58,1.65,15.17,2.15,22.78.26,3.89,2.88,3.82,5.24,3.39,1.44-.26,3.62-1.89,3.75-3.08,2.27-21.5,4.36-43.02,6.3-64.55,1.44-16.06,2.47-32.16,3.92-48.22.67-7.43,1.74-14.84,2.95-22.21.28-1.72.64-3.07,1.14-4.13l-14.05-92.7c-.27-1.79-1.78-3.08-3.58-3.08Z"/>
        <path class="cls-3" d="m13.17,1041.16c.19-1.71.52-3.42.54-5.13.07-5.83-.48-11.71.18-17.46.57-5,1.9-10.11,4.04-14.63.77-1.63,3.36-3.23,5.53-3.7l18.07-92.17c.64-3.29,3.55-5.68,6.9-5.68h4.06c3.3,0,6.06,2.37,6.55,5.63l13.72,90.56c1.41-.54,3.32-.59,5.99-.28,0-5.16,0-10.24,0-15.33,0-17.25,0-34.5,0-51.75-6.8-11.98-13.41-24.21-19.67-36.43-4.08-7.97-8.09-16.08-11.94-24.14l-2.94,6.41c-3.41,9.52-7.24,19.01-11.37,28.22-6.1,13.6-13.05,26.98-20.68,39.85-.1,4.75-.19,9.5-.25,14.25-.27,23.13-.38,46.25-.55,69.38-.03,4.1,0,8.21,0,12.31.61.03,1.22.05,1.83.08Z"/>
        <path class="cls-3" d="m80.49,1002.62c-1.37-.54-3.24.19-4.89.38.59,1.08,1.15,2.19,1.79,3.23.96,1.57,2.04,3.07,2.97,4.66,1.07,1.81,2.03,3.69,3.04,5.54.56-.22,1.11-.43,1.67-.65-.76-3.16-1.39-6.35-2.33-9.45-.42-1.39-1.16-3.29-2.25-3.71Z"/>
        <path class="cls-3" d="m82.03,1172.85c.03-.16,0-.33,0-.5.25-11.94.51-23.88.73-35.81.06-3.3,0-6.6,0-9.9-.55-.1-1.11-.19-1.66-.29-2.75,5.91-2.21,13.89-10.66,17.6,0-2.74-.29-4.71.07-6.56.5-2.57,1.95-5,2.17-7.57.47-5.43,1.45-10.18,6.74-13.31,1.51-.89,2.5-3.86,2.51-5.88.12-23.3.32-46.62-.23-69.91-.18-7.34-2.55-14.62-3.93-21.92-.21-1.13-1.08-2.6-.65-3.3,2.9-4.72.09-6.49-3.35-8.29-.21.41-.61.72-1.1.79-.08.01-.15.02-.23.02-.12,0-.24-.04-.35-.06-.26.98-.5,1.93-.59,2.89-1.69,17.53-3.36,35.07-4.99,52.61-2.38,25.63-4.72,51.27-7.07,76.9-.46,5.01-4.15,5.81-8.12,6.29-3.93.47-6.83-.32-7.32-5.04-.77-7.27-1.9-14.49-2.63-21.76-2.57-25.47-4.9-50.96-7.61-76.42-1.18-11.06-2.86-22.08-4.82-33.03-.37-2.08-2.16-3.9-3.67-5.77-.33.25-.75.36-1.19.28-.32-.06-.59-.22-.79-.44-2.02,1.83-4.36,3.53-5.23,5.79-1.56,4.08-2.15,8.7-2.32,13.13-.35,9.3-.1,18.63-.27,27.94-.03,1.49-.97,2.97-1.49,4.45-.69-.08-1.38-.16-2.07-.25-5.68-17.75-2.38-36.14-2.48-55.67-1.78,1.88-3.45,2.81-3.63,3.97-.65,4.24-1.1,8.56-1.06,12.84.07,8.61.64,17.22.76,25.84.06,4.13-.66,8.27-.63,12.4.12,15.62.51,31.24.59,46.86.1,18.97-.06,37.94,0,56.91.02,6.4.38,12.79.62,20.51,1.71-2.28,2.43-3.24,3.15-4.2.48.47.97.93,1.45,1.4-2.25,2.06-4.5,4.11-7.1,6.48,8.18,5.12,16.25,10.17,24.19,15.14.59-.28,1.71-1.21,2.88-1.3,2.57-.19,5.95,1.11,7.6-.11,3.87-2.85,4.92-1.23,5.62,2.84,2-1.57,4.25-2.5,5.08-4.15,1.88-3.71,3.96-2.48,5.8-.57,2.63,2.73,4.58,2.54,6.21-.77,1.92.63,3.59,1.19,5.51,1.82,1.49-2.2,3.89-4.14,4.04-6.25.41-5.76-.15-11.58-.28-17.37-.14-6.48-.41-12.98-.19-19.45.04-1.25,2.08-2.42,3.19-3.63.77,1.19,2.3,2.46,2.17,3.54-.42,3.76,1.88,7.51-.58,11.41-.88,1.39.49,4.21.87,6.6-.4,2.42-.88,5.31-1.39,8.43,3.51.25,6.36,1.32,8.24.4,4.16-2.04-.98-4.29-.51-6.62Z"/>
        <path d="m85.17,1004.72c-.54-1.16-1.12-2.36-1.67-3.57.43-.26.72-.73.72-1.27v-64.67c0-.26-.07-.52-.2-.75-1.04-1.81-2.07-3.65-3.1-5.48l-2.17-3.83c-5.86-10.47-11.56-21.1-17-31.72-4.56-8.9-9.03-17.97-13.28-26.96-.25-.52-.78-.86-1.36-.86h0c-.58,0-1.11.34-1.35.88l-4.3,9.39s-.03.08-.05.12c-3.39,9.46-7.2,18.91-11.3,28.07-5.32,11.86-11.29,23.55-17.8,34.88,0,0-3.73,4.08-9.17,8.64-.31,8.64-.61,17.28-.71,25.93-.1,8.27,1.37,16.57,1.27,24.84-.13,11.29-1.08,22.57-1.69,34,.39-.65.69-1.16.99-1.66.91,2.22.97,4.43.9,6.63-.21,6.46-.71,12.91-.67,19.36.05,7.97.76,15.93.79,23.9.11,31.62.06,63.23.03,94.85,0,1.25-.07,2.82-.77,3.7-3.42,4.23-.74,5.91,2.62,8.04,1.71,1.09,3.24,3.41,3.6,5.41.51,2.84-.31,5.88-.25,8.83.09,4.61-3.79,10.69,4.33,12.59.33.08.42.97.79,1.19,1.96,1.18,3.87,2.87,6,3.24,3.85.67,7.86.37,11.77.76,4.26.43,8.96,2.69,12.63,1.52,9.79-3.13,20.69,1.66,30.17-5.84,3.89-3.08,5.23-4.92,4.18-9.03-1.25-4.91-1.55-9.7.42-14.5.47-1.15.53-2.48.77-3.73-.47-.15-.93-.29-1.4-.44-.65,1.19-1.29,2.38-2.04,3.77-.45-4.55.36-5.34,6.29-9.35,1.55-1.05,3.48-4.31,2.95-5.25-3.84-6.7-2.46-13.96-2.57-20.92-.24-14.9.34-29.8.33-44.7,0-15.33-.13-30.66-.25-45.99l3.86-8.31c.23-1.87.6-3.74.67-5.62.25-6.13-.15-12.35.71-18.39,1.37-9.68.46-18.79-3.69-27.69Zm-73.82,24.05c.17-23.13.28-46.25.55-69.38.05-4.75.15-9.5.25-14.25,7.63-12.87,14.58-26.24,20.68-39.85,4.13-9.21,7.96-18.71,11.37-28.22l2.94-6.41c3.85,8.06,7.86,16.17,11.94,24.14,6.26,12.23,12.88,24.45,19.67,36.43,0,17.25,0,34.5,0,51.75,0,5.08,0,10.17,0,15.33-2.66-.3-4.57-.26-5.99.28l-13.72-90.56c-.5-3.26-3.25-5.63-6.55-5.63h-4.06c-3.35,0-6.25,2.39-6.9,5.68l-18.07,92.17c-2.18.46-4.76,2.07-5.53,3.7-2.14,4.52-3.46,9.64-4.04,14.63-.66,5.75-.11,11.64-.18,17.46-.02,1.71-.35,3.42-.54,5.13-.61-.03-1.22-.05-1.83-.08,0-4.1-.03-8.21,0-12.31Zm58.77-27.59c-.5,1.05-.85,2.4-1.14,4.13-1.21,7.37-2.28,14.78-2.95,22.21-1.45,16.06-2.48,32.16-3.92,48.22-1.93,21.53-4.03,43.05-6.3,64.55-.13,1.19-2.31,2.82-3.75,3.08-2.36.43-4.98.5-5.24-3.39-.5-7.61-1.32-15.2-2.15-22.78-2.51-22.95-5.09-45.9-7.62-68.85-1.25-11.37-2.37-22.76-3.72-34.13-.35-2.95-.78-6.13-2.19-8.64-1.05-1.86-2.85-4.04-4.69-4.99l18.03-91.94c.37-1.89,2.03-3.25,3.95-3.25h4.06c1.81,0,3.31,1.3,3.58,3.08l14.05,92.7Zm-49.32,214.97c-3.53-1.64-6.76-4.3-9.51-7.12-2.01-2.07,2.07-13.55,5.88-15.56-.2,4.28-.37,7.77-.59,12.64,1.55-2.12,2.25-3.08,2.99-4.08,4.87.89,2.71,4.36,2.64,5.91,1.77,2.77,2.97,4.65,4.49,7.02.46-1.85.83-3.31,1.19-4.77.21.02.43.04.64.05.12,1.59.24,3.17.44,5.73-2.9.14-6.01,1.19-8.17.18Zm22.46,2.57c-4.29-.61-9.07.35-11.22-3.8,2.01-3.69,3.6-6.6,5.92-10.85.56,3.54.98,6.2,1.42,9.06,4.6-.61,2.87-4.59,3.43-7.29.68.12,1.35.24,2.03.36-.52,4.14-1.05,8.27-1.59,12.52Zm20.27-1.93h-8.92c1.19-4.7,2.21-8.76,3.24-12.82.65.22,1.29.44,1.94.65-.97,2.65-1.93,5.3-2.89,7.92,1.59.78,3.07,1.5,4.77,2.33.44-.9.89-1.81,1.86-3.8v5.72Zm19.02-37.31c-1.88.92-4.73-.16-8.24-.4.51-3.12.99-6.01,1.39-8.43-.38-2.39-1.75-5.21-.87-6.6,2.46-3.89.17-7.65.58-11.41.12-1.09-1.4-2.36-2.17-3.54-1.12,1.21-3.15,2.39-3.19,3.63-.22,6.47.04,12.96.19,19.45.13,5.8.69,11.62.28,17.37-.15,2.11-2.55,4.05-4.04,6.25-1.92-.64-3.6-1.19-5.51-1.82-1.63,3.31-3.58,3.49-6.21.77-1.84-1.91-3.92-3.14-5.8.57-.83,1.65-3.08,2.58-5.08,4.15-.7-4.07-1.75-5.7-5.62-2.84-1.65,1.21-5.03-.08-7.6.11-1.18.09-2.3,1.02-2.88,1.3-7.95-4.97-16.01-10.02-24.19-15.14,2.59-2.37,4.85-4.42,7.1-6.48-.48-.47-.97-.93-1.45-1.4-.72.96-1.44,1.92-3.15,4.2-.24-7.72-.6-14.11-.62-20.51-.06-18.97.1-37.94,0-56.91-.08-15.62-.47-31.24-.59-46.86-.03-4.13.69-8.27.63-12.4-.12-8.61-.68-17.22-.76-25.84-.04-4.28.42-8.6,1.06-12.84.18-1.16,1.84-2.09,3.63-3.97.1,19.53-3.2,37.92,2.48,55.67.69.08,1.38.16,2.07.25.52-1.48,1.46-2.96,1.49-4.45.17-9.31-.09-18.64.27-27.94.17-4.42.76-9.04,2.32-13.13.87-2.27,3.21-3.97,5.23-5.79.21.22.48.38.79.44.44.09.86-.03,1.19-.28,1.5,1.87,3.3,3.7,3.67,5.77,1.96,10.95,3.64,21.97,4.82,33.03,2.72,25.45,5.04,50.95,7.61,76.42.73,7.27,1.86,14.5,2.63,21.76.5,4.72,3.39,5.51,7.32,5.04,3.97-.48,7.66-1.28,8.12-6.29,2.35-25.64,4.69-51.27,7.07-76.9,1.63-17.54,3.29-35.08,4.99-52.61.09-.96.34-1.91.59-2.89.12.03.23.06.35.06.08,0,.15,0,.23-.02.49-.07.89-.38,1.1-.79,3.44,1.8,6.26,3.57,3.35,8.29-.43.7.44,2.18.65,3.3,1.38,7.3,3.75,14.59,3.93,21.92.56,23.29.35,46.61.23,69.91-.01,2.02-1,4.99-2.51,5.88-5.29,3.13-6.27,7.88-6.74,13.31-.22,2.56-1.67,5-2.17,7.57-.36,1.85-.07,3.82-.07,6.56,8.46-3.71,7.91-11.69,10.66-17.6.55.1,1.11.19,1.66.29,0,3.3.05,6.6,0,9.9-.22,11.94-.48,23.88-.73,35.81,0,.17.03.34,0,.5-.47,2.33,4.68,4.59.51,6.62Zm.85-163.04c-1.01-1.85-1.97-3.73-3.04-5.54-.93-1.59-2.01-3.09-2.97-4.66-.64-1.05-1.2-2.15-1.79-3.23,1.65-.18,3.52-.91,4.89-.38,1.08.42,1.83,2.32,2.25,3.71.93,3.1,1.57,6.3,2.33,9.45-.56.22-1.11.43-1.67.65Z"/>
      </g>
      <g>
        <path d="m13.66,57.96c1.63-4.96,2.88-10.09,4.98-14.84,4.88-11.02,9.63-22.17,15.5-32.66C37.85,3.82,43.91-1.05,52.6.2c1.57.23,3.33.73,4.54,1.69,7.2,5.69,12.81,12.56,16.2,21.26,3.46,8.87,7.78,17.42,10.94,26.38,2.05,5.83,2.86,12.12,3.87,18.27.66,4.01.97,8.13.91,12.19-.05,3.58-.9,7.14-1.26,10.72-.77,7.61,1.7,14.7,5.18,21.04,6.83,12.43,7.33,25.63,6.74,39.18-.15,3.32-1.04,5.27-5.05,5.45-3.63.16-7.16,1.82-10.8,2.41-8.15,1.31-16.32,3.01-24.54,3.34-9.79.4-19.64-.21-29.44-.89-4.59-.32-9.12-1.78-13.65-2.82-3.1-.71-6.16-2.22-9.24-2.26-5.31-.06-6.2-2.94-6.66-7.35-1.47-14.05,1.95-27,8.06-39.47,3.52-7.18,4.76-14.83,4.26-22.78l-.16.15c15.94-.68,31.88-1.37,47.81-2.05-9.27-1.17-18.52-1.19-27.76-1.16-6.93.02-8.82-1.67-9.76-8.75-.43-3.25-.96-6.48-1.44-9.72-.42-.06-.85-.13-1.27-.19-1.99,4.48-3.99,8.95-6.06,13.61-1.5-6.14,3.32-9.77,5.17-14.47.67-1.69,1.65-3.76,1.18-5.24-.36-1.14-2.77-1.63-4.3-2.43,3.2-2.44,4.89-.95,5.62,2.41,1.27,5.81,2.57,11.62,3.55,17.48.69,4.15,2.25,6.13,6.99,5.92,9.68-.42,19.39-.13,28.95-.13,1.53,4.43.03,5.69-3.92,5.65-12.63-.14-25.26-.04-37.89-.05-2.87,0-5.78-.02-5.58,4.06.43,8.47-2.29,16.24-6.22,23.37-6.31,11.43-5.53,23.65-5.31,35.88.02,1.07.93,2.8,1.78,3.06,6.45,1.99,12.89,4.64,19.51,5.28,11.23,1.1,22.61.57,33.89,1.29,14.02.89,26.85-4.29,40.31-7.1.08-13.18,1.51-26.37-5.24-38.89-3.89-7.21-7.4-14.97-6.57-23.79.09-.94-2.22-2.9-3.55-3.03-4.03-.41-8.13-.15-13.8-.15,2.03-3.19,3.54-5.56,5.05-7.93.36.21.72.42,1.08.62-1.03,1.85-2.05,3.69-3.35,6.03,3.98-.25,7.45-.47,11.89-.76-1.94-6.02-4.16-11.26-5.17-16.72-.55-2.99.89-6.38,1.74-9.51.05-.19,3.98.06,4.12.61.84,3.32,1.1,6.78,1.55,10.19-.76.13-1.53.25-2.29.38-.5-1.79-1-3.57-1.51-5.36-.54.07-1.08.13-1.62.2.45,2.28.18,5.14,1.48,6.72,3.62,4.4,4.16,9.18,3.82,14.73,1.1-.85,2.07-1.95,2.1-3.08.09-3.74-.21-7.49-.27-11.23-.13-7.71-.89-15.19-4.28-22.38-4.05-8.61-6.98-17.77-11.26-26.25-3.18-6.29-7.15-12.43-11.92-17.57-2.51-2.71-7.5-4.33-11.36-4.32-6.61.02-15.52,9.89-16.53,16.18,5.01-1.1,10.27-2.25,15.53-3.41.09.47.17.95.26,1.42-1.95.26-4.01.21-5.83.85-4.22,1.49-10.19,2.15-12.09,5.23-4.22,6.81-6.37,14.89-9.36,22.45-.11.34-.06.65.16.94-2.34,4.1-4.69,8.2-7.03,12.3,0,0,.13.06.13.06Z"/>
        <path d="m14.51,57.43c-.06-.44-.19-.8-.35-1l-.05-.06c-.2-.24-.44-.21-.64.09-.18.27-.29.72-.32,1.23-.01.05-.03.1-.04.16-.11.43-.24.93-.33,1.5-.24.4-.43.8-.46,1.21-.52,8.39-.92,16.79-1.26,25.19,0,.19.61.4,1.15.62.11.77.42,1.16.68,1.42.06.19.14.34.23.45.09.11.19.16.29.16.16,0,.32-.15.45-.43l.06-.15c.17-.38.25-.94.22-1.5,0-.15-.02-.29-.05-.43l.38-27.21c.07-.39.08-.84.03-1.25Z"/>
        <path d="m20.39,44.66c.29.27.34.59.16.94-.22-.28-.28-.6-.16-.94Z"/>
        <path d="m14.01,153.19c-.78-20.45-2.99-40.94,1.61-61.08-.53,20.25-1.07,40.66-1.61,61.08Z"/>
        <path d="m52.89,98.77c.65,2.53,1.62,4.59,1.64,6.67.16,17.21.14,34.42.16,51.63,0,.62-.21,1.24-.32,1.85-.49,0-.99-.01-1.48-.02v-60.14Z"/>
        <path d="m49,159.38v-23.08c-.41-.04-.82-.08-1.23-.11-.21,1.24-.43,2.49-.64,3.73-.32-.03-.64-.07-.96-.1,1.06-13.04,2.11-26.08,3.17-39.12.39,0,.77,0,1.16.01v58.52c-.5.05-.99.11-1.49.16Z"/>
        <path d="m7.98,152.02v-33.39c.29,0,.59,0,.88,0v33.38c-.29,0-.59,0-.88.01Z"/>
        <path d="m36.23,157.13v-66.13h.72v66.16l-.72-.04Z"/>
        <path d="m32.3,134.74v-43.65c.2,0,.4,0,.61,0v43.64c-.2,0-.4,0-.61,0Z"/>
        <path d="m35.41,38.27c2.96,4.6,1.7,7.9-1.53,11.05-3.62-3.54-3.27-6.48,1.53-11.05Z"/>
        <path d="m65.04,38.69c.82.68,1.67,1.03,1.77,1.54.52,2.64.85,5.31,1.24,7.97-1.02,0-2.62.41-2.96-.07-1.99-2.82-3.4-5.86-.06-9.44Z"/>
        <path d="m60.13,121.36h5.54c-.24,2.1-.27,4.04-.79,5.84-.17.6-1.6.85-2.45,1.25-.71-2.2-1.43-4.41-2.3-7.09Z"/>
        <path d="m59.81,29.26c-4.11-.4-8.22-.8-12.34-1.21.03-.33.06-.66.08-.98h12.38c-.04.73-.09,1.46-.13,2.19Z"/>
      </g>
    </g>
  </g>
</svg>