<?xml version="1.0" encoding="UTF-8"?>
<svg id="Capa_2" data-name="Capa 2" xmlns="http://www.w3.org/2000/svg" viewBox="0 0 216.06 93.33">
  <defs>
    <style>
      .cls-1 {
        fill: #564cfd;
      }
    </style>
  </defs>
  <g id="Capa_1-2" data-name="Capa 1">
    <g>
      <path class="cls-1" d="m36.48,61.47c-8.59-5.77-16.48-12.5-21.1-22.2-5.1-10.71-2.62-19.44,7.56-25.59,2.68-1.62,5.83-2.44,8.55-4.01,1.98-1.14,4.16-2.57,5.3-4.44,3.34-5.46,10.02-7.16,14.27-2.58,2.57,2.77,5.19,3.03,8.39,2.98,36.17-.52,69.84,8.84,101.32,26.27,10.21,5.66,19.67,12.51,26.73,22.14,10.11,13.79,6.67,26.62-9.07,33.48-11.41,4.97-23.5,5.83-35.73,5.81-35.37.03-77.13-12.32-106.22-31.86Zm138.03,18.4c9.63-4.58,11.71-11.74,5.97-20.7-6.23-9.71-15.45-16.07-25.2-21.51-29.5-16.48-61.24-24.74-95.06-24.42-3.35.03-6.64,2.23-10.04,3.1-2.61.67-5.52,1.62-8,1.09-5.39-1.15-13.29,1.22-17.13,6.12-3.8,4.86-3.16,9.87-.24,14.89,5.47,9.4,13.98,15.63,23.01,20.97,28.97,17.14,60.57,25.27,91.8,26.45,13.48-.26,24.56-1.07,34.89-5.99Z"/>
      <path class="cls-1" d="m67.74,57.71c-7.68-3.94-14.84-9.57-20.96-15.71-6.19-6.21-3.61-13.8,4.72-16.86,3.25-1.2,6.72-2.08,10.15-2.43,23.13-2.4,44.93,3.19,66.39,11.08,3.14,1.15,6.68,1.66,10.04,1.66,3.92,0,6.61,1.5,8.93,4.47,2.37,3.04,4.98,5.91,7.55,8.79,1.88,2.11,4.13,3.92,5.76,6.2,4.96,6.93,3.64,13.12-4.34,15.96-6.77,2.41-14.16,3.1-21.27,4.55-23.76-1.38-46.11-7.02-66.96-17.71Zm81.22,7.68c5.2-1.29,6.07-4.75,2.63-8.94-2.45-2.99-4.54-6.21-9.81-3.69-5.05,2.41-10.08-1.25-11.77-6.9-.49-1.65-1.67-3.83-3.07-4.38-18.9-7.31-38.33-12.36-58.78-12.17-3.28.03-6.66.61-9.8,1.58-6.09,1.9-7.18,6.03-2.4,10.32,4.04,3.62,8.62,6.91,13.46,9.32,19.75,9.83,40.75,15.23,62.89,17.47,5.55-.84,11.21-1.28,16.64-2.62Z"/>
      <path class="cls-1" d="m101.95,58.55c6.31-.11,11.35-5.26,11.29-11.5-.07-6.34-5.15-11.38-11.44-11.35-6.02.03-11.36,5.45-11.4,11.58-.04,6.12,5.35,11.38,11.56,11.27Z"/>
      <path class="cls-1" d="m204.78,55.63c6.31-.11,11.35-5.26,11.29-11.5-.07-6.34-5.15-11.38-11.44-11.35-6.02.03-11.36,5.45-11.4,11.58-.04,6.12,5.35,11.38,11.56,11.27Z"/>
      <path class="cls-1" d="m5.44,38.94c1.3-.02,2.34-1.08,2.33-2.37-.01-1.31-1.06-2.35-2.36-2.34-1.24,0-2.34,1.12-2.35,2.39,0,1.26,1.1,2.35,2.38,2.33Z"/>
      <path class="cls-1" d="m6.48,55.18c3.54-.06,6.36-2.95,6.33-6.45-.04-3.55-2.89-6.38-6.41-6.36C3.02,42.39.02,45.43,0,48.86c-.02,3.43,3,6.38,6.48,6.32Z"/>
    </g>
  </g>
</svg>