<?xml version="1.0" encoding="UTF-8"?>
<svg id="Capa_2" data-name="Capa 2" xmlns="http://www.w3.org/2000/svg" viewBox="0 0 140.2 145.25">
  <defs>
    <style>
      .cls-1 {
        fill: #564cfd;
      }
    </style>
  </defs>
  <g id="Capa_1-2" data-name="Capa 1">
    <g>
      <path class="cls-1" d="m59.15,108.95c-3.72-3.62-7.12-6.94-11-10.71,7.17-6.78,14.04-13.27,21.29-20.13-2.59-2.76-4.44-4.74-6.95-7.42-6.64,7.36-12.98,14.38-19.8,21.94-4.15-4.05-7.41-6.83-10.07-10.1-.62-.76.29-3.66,1.35-4.74,10.36-10.59,20.91-21.01,31.4-31.48,12.14-12.12,24.24-24.28,36.43-36.35C107.96,3.85,115.5.49,124.13.04c10.84-.57,16.96,5.87,15.97,16.67-.87,9.52-5.22,17.18-12.09,23.92-22.11,21.7-43.91,43.72-65.84,65.6-.81.81-1.71,1.54-3.02,2.72ZM97.29,21.15c1.43,0,3.03.41,4.28-.07,6.88-2.66,11.85-2.11,15.93,2.49,4.1,4.63,4.25,9.75,1.42,15.23-.53,1.03.34,2.79.75,5.32,7.19-8.87,6.62-18.16-.28-24.59-6.18-5.76-15.68-5.77-22.1,1.61Z"/>
      <path class="cls-1" d="m32.14,71.51c-9.39-9.26-19.36-19.02-29.15-28.96-.63-.64-.32-3.21.46-4.06,3.59-3.93,7.43-7.63,11.33-11.24.86-.8,2.37-1.23,3.59-1.26,19.46-.42,38.92-.74,58.38-1.07.81-.01,1.62.13,1.68.14-15.14,15.2-30.54,30.65-46.29,46.46Z"/>
      <path class="cls-1" d="m115.18,60.99c0,2.33.03,4.71,0,7.09-.29,17.79-.58,35.57-.9,53.36-.02.96.02,2.23-.54,2.82-4.24,4.45-8.55,8.85-13.07,13.03-.57.53-2.9.09-3.67-.66-9.17-8.95-18.25-18-27.16-27.21-.8-.83-.92-3.68-.17-4.43,14.63-14.76,29.43-29.36,44.2-43.97.08-.08.31,0,1.31,0Z"/>
      <path class="cls-1" d="m56.28,112.63c-9.76-9.9-18.92-19.18-28.54-28.94-1.38,1.36-2.89,2.85-4.45,4.39.02.02.03.03.05.05-2.93,3.28-5.61,6.93-8.12,11.06,1.4-.37,2.7-.72,3.95-1.05-1.14,1.26-2.17,2.66-3.14,4.26,1.28-.34,2.37-.63,3.43-.91-5.36,4.19-8.79,10.04-11.26,16.47-3.13,8.12-5.41,16.58-8.03,24.9-.19.59-.11,1.27-.19,2.41,5.7-6.64,9.36-14.83,17.85-17.82.34.19.68.37,1.02.56-1.07,3.41-2.15,6.82-3.41,10.82,3.51-4.06,6.46-7.78,9.74-11.18,2.93-3.03,6.06-5.88,9.23-8.66-.29.54-.55,1.1-.77,1.69-.87,2.25-1.5,4.59-2.22,6.89-.05.16-.03.35-.05.67,1.59-1.85,2.6-4.14,4.99-4.95.1.1.12.12.22.22-.29.93-.59,1.86-.93,2.95.97-1.12,1.79-2.15,2.7-3.09.93-.96,1.93-1.86,2.94-2.74.2-.17.44-.3.7-.41-.33.96-.68,1.93-1.02,2.94,2.88-.85,6.88-3.14,10.87-6.24.01.01.02.03.04.04,1.64-1.6,3.36-3.28,4.4-4.29Z"/>
    </g>
  </g>
</svg>