<?xml version="1.0" encoding="UTF-8"?>
<svg id="Capa_2" data-name="Capa 2" xmlns="http://www.w3.org/2000/svg" viewBox="0 0 137.37 142.66">
  <defs>
    <style>
      .cls-1 {
        fill: #564cfd;
      }
    </style>
  </defs>
  <g id="Capa_1-2" data-name="Capa 1">
    <g>
      <path class="cls-1" d="m100.62,35.46c-.69-.39-1.37-.77-2.06-1.16,2.28-6.84,4.55-13.69,7.23-21.73-7.24,8.09-13.34,15.52-20.1,22.28-6.04,6.04-12.47,11.69-18.99,17.22.61-1.08,1.14-2.21,1.61-3.38,1.82-4.51,3.17-9.21,4.7-13.83.11-.33.07-.71.13-1.34-3.28,3.69-5.41,8.27-10.27,9.85-.2-.21-.24-.25-.44-.45.62-1.86,1.24-3.73,1.97-5.91-2,2.24-3.69,4.29-5.56,6.17s-3.98,3.7-6.06,5.45c-.41.34-.91.6-1.43.81.69-1.94,1.44-3.88,2.15-5.89C36.62,48.2.74,76.55,0,99.32c12.08-19.36,26.06-25.88,40.73-19.98,7.51,3.02,12.94,8.28,16.24,14.35,0,.09-.02.18-.02.26.03-.05.06-.09.09-.14,3.76,6.98,4.71,15.01,2.78,21.93-4.82,17.28-18.33,24.49-41.45,21.51,7.38,5.03,14.38,5.82,21.61,5.25,11.63-.92,21.92-5.47,31.17-12.37,13.35-9.95,24.25-22.16,34.01-37.67-2.85.71-5.51,1.38-8.06,2.01,2.34-2.51,4.48-5.31,6.49-8.5-2.62.65-4.83,1.21-7,1.75,11-8.3,18.13-20.01,23.33-32.9,6.58-16.29,11.44-33.28,17-49.98.4-1.19.26-2.57.45-4.84-11.77,13.23-19.43,29.65-36.75,35.46Z"/>
      <path class="cls-1" d="m39.56,132.16c9.39-4.45,15.51-15.82,14.45-26.92-1.13-11.79-8.14-20.28-18.98-22.97-11.51-2.85-24.48,5.64-27.61,18.13-.48,1.93-.69,3.93-.94,5.4-.84,10.18,2.32,18.29,10.05,24.19,7.09,5.41,14.91,6.03,23.03,2.18Zm-15.2-39.93c.06-.36.11-.86.23-1.34.77-3.09,3.98-5.19,6.83-4.48,2.68.66,4.42,2.77,4.7,5.68.26,2.75-1.25,5.56-3.58,6.66-2.01.95-3.94.8-5.7-.54-1.91-1.46-2.69-3.46-2.49-5.98Z"/>
    </g>
  </g>
</svg>