<?xml version="1.0" encoding="UTF-8"?>
<svg id="Capa_2" data-name="Capa 2" xmlns="http://www.w3.org/2000/svg" viewBox="0 0 158.83 158.98">
  <defs>
    <style>
      .cls-1 {
        fill: #564cfd;
      }
    </style>
  </defs>
  <g id="Capa_1-2" data-name="Capa 1">
    <g>
      <path class="cls-1" d="m133.86,158.17c-1.16,1.12-3.01,1.08-4.11-.1-4.39-4.69-9.16-9.87-14.1-14.88-9.11-9.24-18.34-18.37-27.61-27.45-1.97-1.93-2.81-3.38-.44-5.71,7.79-7.7,15.45-15.52,22.84-23.01,1.13-1.14,2.98-1.13,4.11,0,14.64,14.77,29.02,29.28,43.44,43.84,1.13,1.15,1.11,3-.05,4.12-7.32,7.05-15.38,14.81-24.08,23.19Zm.75-9.35c1.37-1.14,2.69-2.24,4.02-3.35s1.39-3.14.13-4.33l-.14-.13c-1.08-1.02-2.74-1.06-3.86-.11-1.35,1.14-2.64,2.23-4,3.38s-1.37,3.24-.02,4.4l.13.11c1.08.93,2.65.93,3.74.03Zm11.03-19.7c-1.35,1.22-2.58,2.34-3.72,3.37s-1.26,2.63-.41,3.82c.25.35.48.68.72,1,1.01,1.42,3.03,1.62,4.31.44s2.57-2.37,3.88-3.58,1.24-3.16-.04-4.29c-.3-.26-.59-.53-.89-.79-1.1-.98-2.77-.96-3.86.03Zm-29.22-31.98c-.29-.35-.57-.68-.84-1.02-1.08-1.3-3.03-1.4-4.24-.23-1.13,1.1-2.24,2.18-3.35,3.26s-1.17,2.77-.2,3.93c.27.32.53.63.79.94,1.07,1.27,2.98,1.38,4.19.25s2.34-2.19,3.4-3.19,1.22-2.77.25-3.95Zm13.99,36.42c-.2-.27-.39-.55-.59-.83-1.05-1.47-3.18-1.63-4.44-.33-1.17,1.21-2.27,2.35-3.33,3.45-1.01,1.04-1.08,2.67-.19,3.81.14.18.28.35.42.53,1.03,1.31,2.96,1.46,4.2.35s2.46-2.21,3.51-3.15,1.27-2.62.42-3.82Zm6.77-12.47c-1.36,1.53-2.58,2.9-3.84,4.32-1,1.13-.97,2.83.07,3.92.04.04.08.08.12.12,1.11,1.16,2.97,1.19,4.12.06,1.44-1.41,2.76-2.72,4.09-4.03,1.08-1.07,1.16-2.79.16-3.95-.12-.14-.24-.27-.36-.41-1.14-1.32-3.19-1.34-4.35-.03Zm-3.59-8.01l-.4-.38c-1.12-1.08-2.86-1.1-3.99-.06-1.44,1.33-2.79,2.58-4.16,3.85-1.21,1.12-1.24,3.03-.06,4.18.22.22.44.43.66.65,1.15,1.13,3,1.1,4.12-.06,1.27-1.33,2.54-2.66,3.91-4.1,1.1-1.15,1.06-2.97-.08-4.08Zm-23.54,2.6c-1.53,1.39-2.89,2.62-4.17,3.78-1.1,1-1.27,2.67-.37,3.86.08.1.16.21.24.32,1.04,1.39,3.07,1.56,4.32.35,1.4-1.34,2.71-2.6,4.1-3.93,1.2-1.15,1.18-3.07-.03-4.2-.06-.05-.11-.1-.17-.15-1.1-1.02-2.8-1.03-3.91-.02Zm-12.15.27c1.28,1.26,3.4,1.05,4.41-.44.44-.64.86-1.23,1.3-1.79.56-.7,1.16-1.38,1.8-2.08,1.06-1.16,1-2.97-.15-4.05-.25-.24-.5-.47-.75-.71-1.13-1.07-2.92-1.05-4.02.06-.64.64-1.26,1.22-1.94,1.7-.53.37-1.09.7-1.68,1.02-1.73.93-2.08,3.25-.68,4.62.6.58,1.15,1.12,1.71,1.67Zm24.58,8.89c-.3-.34-.58-.66-.85-.96-1.01-1.13-2.72-1.29-3.92-.37-6.13,4.7-6.69,6.18-2.91,8.96,1.1.81,2.63.75,3.65-.16,1.24-1.1,2.49-2.22,3.8-3.38,1.19-1.06,1.3-2.89.24-4.08Zm2.55-19.75c-3.16-3.28-4.74-2.6-8.83,3.03-.85,1.18-.71,2.81.35,3.81.31.29.63.59.95.9,1.16,1.1,3,1.04,4.09-.12,1.17-1.24,2.3-2.44,3.44-3.64,1.05-1.11,1.06-2.87,0-3.98Z"/>
      <path class="cls-1" d="m47.7,72.01c-1.16,1.12-3.01,1.08-4.11-.1-4.39-4.69-9.16-9.87-14.1-14.88C20.37,47.79,11.15,38.66,1.88,29.57c-1.97-1.93-2.81-3.38-.44-5.71C9.22,16.16,16.89,8.34,24.28.85c1.13-1.14,2.98-1.13,4.11,0,14.64,14.77,29.02,29.28,43.44,43.84,1.13,1.15,1.11,3-.05,4.12-7.32,7.05-15.38,14.81-24.08,23.19Zm.75-9.35c1.37-1.14,2.69-2.24,4.02-3.35s1.39-3.14.13-4.33l-.14-.13c-1.08-1.02-2.74-1.06-3.86-.11-1.35,1.14-2.64,2.23-4,3.38s-1.37,3.24-.02,4.4l.13.11c1.08.93,2.65.93,3.74.03Zm11.03-19.7c-1.35,1.22-2.58,2.34-3.72,3.37s-1.26,2.63-.41,3.82c.25.35.48.68.72,1,1.01,1.42,3.03,1.62,4.31.44s2.57-2.37,3.88-3.58,1.24-3.16-.04-4.29c-.3-.26-.59-.53-.89-.79-1.1-.98-2.77-.96-3.86.03ZM30.25,10.97c-.29-.35-.57-.68-.84-1.02-1.08-1.3-3.03-1.4-4.24-.23-1.13,1.1-2.24,2.18-3.35,3.26s-1.17,2.77-.2,3.93c.27.32.53.63.79.94,1.07,1.27,2.98,1.38,4.19.25s2.34-2.19,3.4-3.19,1.22-2.77.25-3.95Zm13.99,36.42c-.2-.27-.39-.55-.59-.83-1.05-1.47-3.18-1.63-4.44-.33-1.17,1.21-2.27,2.35-3.33,3.45-1.01,1.04-1.08,2.67-.19,3.81.14.18.28.35.42.53,1.03,1.31,2.96,1.46,4.2.35s2.46-2.21,3.51-3.15,1.27-2.62.42-3.82Zm6.77-12.47c-1.36,1.53-2.58,2.9-3.84,4.32-1,1.13-.97,2.83.07,3.92.04.04.08.08.12.12,1.11,1.16,2.97,1.19,4.12.06,1.44-1.41,2.76-2.72,4.09-4.03,1.08-1.07,1.16-2.79.16-3.95-.12-.14-.24-.27-.36-.41-1.14-1.32-3.19-1.34-4.35-.03Zm-3.59-8.01l-.4-.38c-1.12-1.08-2.86-1.1-3.99-.06-1.44,1.33-2.79,2.58-4.16,3.85-1.21,1.12-1.24,3.03-.06,4.18.22.22.44.43.66.65,1.15,1.13,3,1.1,4.12-.06,1.27-1.33,2.54-2.66,3.91-4.1,1.1-1.15,1.06-2.97-.08-4.08Zm-23.54,2.6c-1.53,1.39-2.89,2.62-4.17,3.78-1.1,1-1.27,2.67-.37,3.86.08.1.16.21.24.32,1.04,1.39,3.07,1.56,4.32.35,1.4-1.34,2.71-2.6,4.1-3.93,1.2-1.15,1.18-3.07-.03-4.2-.06-.05-.11-.1-.17-.15-1.1-1.02-2.8-1.03-3.91-.02Zm-12.15.27c1.28,1.26,3.4,1.05,4.41-.44.44-.64.86-1.23,1.3-1.79.56-.7,1.16-1.38,1.8-2.08,1.06-1.16,1-2.97-.15-4.05-.25-.24-.5-.47-.75-.71-1.13-1.07-2.92-1.05-4.02.06-.64.64-1.26,1.22-1.94,1.7-.53.37-1.09.7-1.68,1.02-1.73.93-2.08,3.25-.68,4.62.6.58,1.15,1.12,1.71,1.67Zm24.58,8.89c-.3-.34-.58-.66-.85-.96-1.01-1.13-2.72-1.29-3.92-.37-6.13,4.7-6.69,6.18-2.91,8.96,1.1.81,2.63.75,3.65-.16,1.24-1.1,2.49-2.22,3.8-3.38,1.19-1.06,1.3-2.89.24-4.08Zm2.55-19.75c-3.16-3.28-4.74-2.6-8.83,3.03-.85,1.18-.71,2.81.35,3.81.31.29.63.59.95.9,1.16,1.1,3,1.04,4.09-.12,1.17-1.24,2.3-2.44,3.44-3.64,1.05-1.11,1.06-2.87,0-3.98Z"/>
      <path class="cls-1" d="m100.62,23.09c11.76,11.97,23.16,23.57,34.67,35.28-2.64,4.26-8.31,6.79-14.14,4.91-12.34-3.98-20.65-12.5-25.15-24.54-2.21-5.93-.07-11.04,4.62-15.66Z"/>
      <path class="cls-1" d="m151.98,39.25c-7.26,1.45-7.32,1.41-8.76-4.83-2.62-11.39-10.99-19.14-22.63-21.01-1.12-.18-2.21-.53-3.23-.79-1.25-8.32-.19-9.32,7.53-7.36,16.51,4.19,28.3,18.85,27.09,33.98Z"/>
      <path class="cls-1" d="m117.22,20.95c10.64-.53,19.07,7.78,18.91,18.47-4.04.76-7.9,2.06-9.5-4.04-.53-2.03-3.01-4.54-5.02-5-5.83-1.32-4.93-5.09-4.39-9.43Z"/>
      <path class="cls-1" d="m85.28,38.41c-14.26,14.13-29.07,28.04-42.96,42.82-9.54,10.15-7.92,25.32,2.39,34.97,9.48,8.88,24.7,8.76,34.45-.55,8.66-8.28,17-16.9,25.55-25.29,5.56-5.45,11.26-10.76,16.95-16.17-12.63-12.43-24.43-24.03-36.37-35.77Zm-4.18,9.24l-22.46,21.23c-.31.29-.79.28-1.08-.03-.29-.31-.28-.79.03-1.08l22.46-21.23c.31-.29.79-.28,1.08.03.29.31.28.79-.03,1.08Zm9.88,53.55c-.3.3-.78.3-1.08,0s-.3-.78,0-1.08l21.85-21.85c.3-.3.78-.3,1.08,0s.3.78,0,1.08l-21.85,21.85Z"/>
    </g>
  </g>
</svg>