<?xml version="1.0" encoding="UTF-8"?>
<svg id="Capa_2" data-name="Capa 2" xmlns="http://www.w3.org/2000/svg" viewBox="0 0 163.42 112.08">
  <defs>
    <style>
      .cls-1 {
        fill: #564cfd;
      }
    </style>
  </defs>
  <g id="Capa_1-2" data-name="Capa 1">
    <g>
      <g>
        <path class="cls-1" d="m83.31,4.54c23.27.16,43.3,14.76,50.81,36.72,1.45,4.23.98,6.43-3.44,8.49-23.59,10.96-48.41,17.72-73.88,22.38-6.38,1.17-12.86,1.79-19.26,2.83-4.46.72-6.59-.83-7.52-5.44C23.16,35.49,48.65,4.3,83.31,4.54Zm-6.81,12.27c-15.06-.17-34.01,17.44-33.92,30.24,10.92-9.73,22.63-20.18,33.92-30.24Z"/>
        <path class="cls-1" d="m135.07,33.11c-.26-.81.3-1.68,1.15-1.79,7.96-1,15.32.12,22.4,2.67,5.17,1.86,6.46,6.68,2.42,10.82-4.58,4.69-9.96,8.85-15.61,12.18-5.52,3.26-8.84,6.54-10.45,13.5-4.89,21.06-18.62,34.8-39.68,39.92-20.55,5-38.21-1.48-52.49-16.68-3.38-3.6-6.55-4.75-11.2-4.44-5.63.38-11.33.26-16.95-.17-3.42-.26-6.94-1.11-10.12-2.41-5.03-2.06-5.88-5.58-2.55-9.95,5.05-6.62,12.06-10.59,19.2-14.3.59-.31,1.32-.15,1.74.37,3.62,4.5,3.14,4.97-1.75,8.34-1.84,1.27-3.27,3.11-4.75,4.9-.63.75-.3,1.9.63,2.21,2.1.71,4.2,1.5,6.33,1.56,17.8.52,35.29-2.39,52.28-7.09,18.39-5.09,36.45-11.47,54.46-17.83,5.89-2.08,11.28-5.67,16.69-8.91,1.23-.74,2.08-2.1,2.96-3.41.48-.71.2-1.69-.58-2.04-1.33-.61-2.65-1.22-4.02-1.74-.75-.29-1.66-.33-2.47-.27-4.16.35-6.43-1.57-7.64-5.44Z"/>
      </g>
      <path class="cls-1" d="m123.6,12.81c-3.54-.06-6.36-2.95-6.33-6.45C117.31,2.81,120.16-.02,123.69,0c3.38.02,6.37,3.06,6.39,6.49.02,3.43-3,6.38-6.48,6.32Z"/>
      <path class="cls-1" d="m113.46,4.71c-1.3-.02-2.34-1.08-2.33-2.37C111.15,1.03,112.2,0,113.49,0c1.24,0,2.34,1.12,2.35,2.39,0,1.26-1.1,2.35-2.38,2.33Z"/>
    </g>
  </g>
</svg>